<?xml version="1.0" encoding="UTF-8" standalone="no"?>
<svg
   version="1.0"
   width="512.000000pt"
   height="512.000000pt"
   viewBox="0 0 512.000000 512.000000"
   preserveAspectRatio="xMidYMid meet"
   id="svg24"
   sodipodi:docname="daily_report.svg"
   inkscape:version="1.2 (dc2aedaf03, 2022-05-15)"
   xmlns:inkscape="http://www.inkscape.org/namespaces/inkscape"
   xmlns:sodipodi="http://sodipodi.sourceforge.net/DTD/sodipodi-0.dtd"
   xmlns="http://www.w3.org/2000/svg"
   xmlns:svg="http://www.w3.org/2000/svg">
  <defs
     id="defs28" />
  <sodipodi:namedview
     id="namedview26"
     pagecolor="#ffffff"
     bordercolor="#000000"
     borderopacity="0.25"
     inkscape:showpageshadow="2"
     inkscape:pageopacity="0.0"
     inkscape:pagecheckerboard="0"
     inkscape:deskcolor="#d1d1d1"
     inkscape:document-units="pt"
     showgrid="false"
     inkscape:zoom="0.4334827"
     inkscape:cx="160.32935"
     inkscape:cy="521.35876"
     inkscape:window-width="1920"
     inkscape:window-height="1017"
     inkscape:window-x="-8"
     inkscape:window-y="-8"
     inkscape:window-maximized="1"
     inkscape:current-layer="g22" />
  <g
     transform="translate(0.000000,512.000000) scale(0.100000,-0.100000)"
     fill="#000000"
     stroke="none"
     id="g22">
    <path
       d="M2370 5114 c-19 -2 -78 -9 -130 -15 -791 -90 -1522 -586 -1924 -1305 -146 -262 -252 -588 -297 -914 -17 -122 -18 -516 -1 -635 43 -308 121 -565 251 -825 112 -223 254 -429 409 -591 l84 -89 -167 0 c-188 0 -217 -7 -263 -68 -39 -51 -39 -133 0 -184 53 -69 50 -69 505 -66 l408 3 34 24 c69 50 71 60 71 497 0 389 0 391 -23 434 -25 48 -89 90 -136 90 -38 0 -111 -40 -135 -73 -19 -26 -21 -47 -26 -249 l-5 -220 -91 94 c-410 424 -635 1022 -610 1623 23 575 250 1092 655 1495 349 348 759 555 1256 636 153 25 496 25 650 1 647 -105 1183 -447 1541 -983 179 -267 296 -573 351 -909 24 -153 24 -497 0 -650 -108 -668 -474 -1222 -1042 -1580 -316 -199 -680 -310 -1093 -333 -153 -9 -171 -15 -216 -76 -29 -39 -29 -133 0 -172 55 -74 113 -85 346 -65 521 47 992 235 1393 558 1101 887 1274 2498 388 3598 -409 507 -974 829 -1633 930 -100 15 -472 28 -550 19z"
       id="path16"
       style="fill:#ffffff" />
    <text
       xml:space="preserve"
       style="font-size:3771.42px;fill:#ffffff;stroke-width:1027.56"
       x="889.18347"
       y="-1416.103"
       id="text379"
       transform="scale(0.91718136,-1.0902969)"><tspan
         sodipodi:role="line"
         id="tspan377"
         style="font-style:normal;font-variant:normal;font-weight:bold;font-stretch:normal;font-family:Calibri;-inkscape-font-specification:'Calibri Bold';fill:#ffffff;stroke-width:1027.56"
         x="889.18347"
         y="-1416.103">24</tspan></text>
  </g>
</svg>
