<?xml version="1.0" encoding="UTF-8" standalone="no"?>
<svg
   version="1.0"
   width="512.000000pt"
   height="512.000000pt"
   viewBox="0 0 512.000000 512.000000"
   preserveAspectRatio="xMidYMid meet"
   id="svg429"
   sodipodi:docname="box_list.svg"
   inkscape:version="1.2 (dc2aedaf03, 2022-05-15)"
   xmlns:inkscape="http://www.inkscape.org/namespaces/inkscape"
   xmlns:sodipodi="http://sodipodi.sourceforge.net/DTD/sodipodi-0.dtd"
   xmlns="http://www.w3.org/2000/svg"
   xmlns:svg="http://www.w3.org/2000/svg">
  <defs
     id="defs433" />
  <sodipodi:namedview
     id="namedview431"
     pagecolor="#ffffff"
     bordercolor="#000000"
     borderopacity="0.25"
     inkscape:showpageshadow="2"
     inkscape:pageopacity="0.0"
     inkscape:pagecheckerboard="0"
     inkscape:deskcolor="#d1d1d1"
     inkscape:document-units="pt"
     showgrid="false"
     inkscape:zoom="0.86696539"
     inkscape:cx="305.08715"
     inkscape:cy="331.03974"
     inkscape:window-width="1920"
     inkscape:window-height="1017"
     inkscape:window-x="1358"
     inkscape:window-y="-8"
     inkscape:window-maximized="1"
     inkscape:current-layer="svg429" />
  <g
     transform="matrix(0.10965478,0,0,-0.11185874,-23.84776,542.75538)"
     fill="#ffffff"
     stroke="none"
     id="g427"
     style="fill:#ffffff">
    <path
       d="M 1168,4212 C 696,3939 310,3713 310,3710 c 0,-3 173,-105 385,-228 l 386,-222 852,491 c 469,271 858,497 865,504 10,9 -68,58 -372,233 -211,122 -388,222 -392,221 -5,0 -395,-224 -866,-497 z"
       id="path413"
       style="fill:#ffffff" />
    <path
       d="m 2087,3682 c -471,-273 -856,-500 -855,-504 3,-7 796,-468 805,-468 8,0 1708,983 1720,994 8,8 -89,69 -388,241 -220,127 -405,231 -412,232 -7,0 -398,-222 -870,-495 z"
       id="path415"
       style="fill:#ffffff" />
    <path
       d="M 230,2588 V 1584 l 663,-382 c 364,-210 755,-435 870,-501 l 207,-120 v 1003 1003 l -847,488 c -467,269 -858,495 -870,503 l -23,14 z"
       id="path417"
       style="fill:#ffffff" />
    <path
       d="M 2973,3087 2110,2587 V 1584 581 l 223,128 c 122,71 335,194 472,274 l 250,145 5,763 c 5,750 5,765 26,810 31,66 78,114 142,146 54,27 65,28 219,31 l 161,4 13,31 c 29,70 103,127 182,142 l 37,7 v 264 c 0,145 -1,264 -2,263 -2,0 -391,-226 -865,-502 z"
       id="path419"
       style="fill:#ffffff" />
    <path
       d="m 3774,2886 c -26,-26 -34,-42 -34,-71 0,-29 8,-45 34,-71 l 34,-34 h 231 c 144,0 239,4 254,11 30,13 57,59 57,94 0,35 -27,81 -57,94 -15,7 -110,11 -254,11 h -231 z"
       id="path421"
       style="fill:#ffffff" />
    <path
       d="m 3295,2726 c -41,-18 -83,-69 -90,-109 -3,-18 -4,-501 -3,-1074 3,-1034 3,-1042 24,-1069 11,-15 33,-37 48,-48 27,-21 36,-21 771,-21 735,0 744,0 771,21 15,11 37,33 48,48 21,27 21,35 24,1082 3,1176 7,1096 -66,1152 -34,26 -40,27 -188,30 l -153,3 -20,-38 c -25,-50 -65,-87 -121,-112 -41,-19 -65,-21 -289,-21 -158,0 -257,4 -283,12 -49,14 -120,76 -142,123 l -17,35 h -142 c -95,-1 -152,-5 -172,-14 z m 520,-411 c 19,-18 25,-35 25,-70 0,-35 -6,-52 -25,-70 -31,-32 -59,-32 -91,0 -23,23 -32,25 -119,25 h -95 v -95 c 0,-78 3,-95 15,-95 25,0 55,-38 55,-70 0,-49 -30,-70 -102,-70 -50,0 -66,4 -85,22 -22,21 -23,26 -23,212 0,254 -18,236 232,236 187,0 189,0 213,-25 z m 215,-65 c 43,-43 30,-64 -128,-222 -180,-181 -173,-179 -278,-75 -83,82 -95,110 -64,150 32,40 70,36 123,-13 l 43,-39 109,109 c 95,95 114,110 142,110 20,0 41,-8 53,-20 z m 665,-105 c 14,-13 25,-33 25,-45 0,-11 -11,-32 -25,-45 l -24,-25 h -242 c -235,0 -243,1 -266,22 -29,27 -29,65 -1,95 21,23 23,23 265,23 h 244 z m -878,-467 c 22,-21 23,-26 23,-212 0,-254 18,-236 -234,-236 -254,0 -236,-18 -236,234 0,254 -18,236 234,236 181,0 191,-1 213,-22 z m 878,-173 c 14,-13 25,-34 25,-45 0,-11 -11,-32 -25,-45 l -24,-25 h -242 c -235,0 -243,1 -266,22 -29,27 -29,65 -1,95 21,23 23,23 265,23 h 244 z m -880,-470 c 21,-20 25,-34 25,-80 0,-46 -4,-60 -25,-80 -13,-14 -33,-25 -43,-25 -24,0 -72,37 -72,56 0,11 -19,14 -95,14 h -95 v -95 c 0,-78 3,-95 15,-95 25,0 55,-38 55,-70 0,-49 -30,-70 -102,-70 -50,0 -66,4 -85,22 -22,21 -23,26 -23,210 0,254 -16,238 235,238 184,0 186,0 210,-25 z m 215,-77 c 40,-43 30,-62 -127,-220 -181,-183 -176,-181 -282,-74 -62,62 -74,80 -74,107 0,37 32,69 69,69 15,0 42,-16 67,-39 l 42,-40 111,110 c 93,92 116,109 142,109 19,0 39,-8 52,-22 z m 665,-93 c 14,-13 25,-34 25,-45 0,-11 -11,-32 -25,-45 l -24,-25 h -242 c -235,0 -243,1 -266,22 -29,27 -29,65 -1,95 21,23 23,23 265,23 h 244 z"
       id="path423"
       style="fill:#ffffff" />
    <path
       d="m 3510,1465 v -95 h 95 95 v 95 95 h -95 -95 z"
       id="path425"
       style="fill:#ffffff" />
  </g>
</svg>
