<?xml version="1.0" standalone="no"?>
<!DOCTYPE svg PUBLIC "-//W3C//DTD SVG 20010904//EN"
 "http://www.w3.org/TR/2001/REC-SVG-20010904/DTD/svg10.dtd">
<svg version="1.0" xmlns="http://www.w3.org/2000/svg"
 width="512.000000pt" height="512.000000pt" viewBox="0 0 512.000000 512.000000"
 preserveAspectRatio="xMidYMid meet">

<g transform="translate(0.000000,512.000000) scale(0.100000,-0.100000)"
fill="#ffffff" stroke="none">
<path d="M788 5104 c-339 -61 -621 -301 -733 -622 -58 -165 -56 -95 -52 -1963
2 -1595 4 -1719 20 -1779 100 -371 363 -632 723 -717 75 -17 161 -18 1814 -18
1653 0 1739 1 1814 18 362 85 638 361 723 723 17 75 18 161 18 1814 0 1653 -1
1739 -18 1814 -85 360 -346 623 -717 723 -61 16 -182 18 -1790 19 -1447 2
-1737 0 -1802 -12z m1851 -973 c14 -10 34 -30 45 -45 21 -27 21 -37 24 -854
l2 -826 288 286 c303 302 311 308 387 294 71 -14 115 -73 115 -158 l0 -53
-433 -433 c-467 -467 -459 -461 -544 -442 -31 7 -105 76 -470 442 l-433 433 0
53 c0 110 75 176 178 157 32 -6 79 -48 325 -293 l287 -287 0 813 c0 877 -2
850 53 901 45 41 126 47 176 12z m1443 -2889 c95 -55 93 -200 -2 -257 -35 -20
-44 -20 -1520 -20 -1476 0 -1485 0 -1520 20 -95 56 -97 194 -4 256 28 18 70
19 1522 19 1405 0 1496 -1 1524 -18z"/>
</g>
</svg>
