<?xml version="1.0" standalone="no"?>
<!DOCTYPE svg PUBLIC "-//W3C//DTD SVG 20010904//EN"
 "http://www.w3.org/TR/2001/REC-SVG-20010904/DTD/svg10.dtd">
<svg version="1.0" xmlns="http://www.w3.org/2000/svg"
 width="512.000000pt" height="512.000000pt" viewBox="0 0 512.000000 512.000000"
 preserveAspectRatio="xMidYMid meet">

<g transform="translate(0.000000,512.000000) scale(0.100000,-0.100000)"
fill="#ffffff" stroke="none">
<path d="M242 4418 c-106 -365 -192 -666 -192 -670 0 -5 511 -8 1135 -8 l1135
0 0 21 c0 32 79 1196 85 1262 l6 57 -988 0 -989 0 -192 -662z"/>
<path d="M2714 5033 c3 -27 29 -313 56 -638 28 -324 53 -605 56 -622 l5 -33
1146 0 c1086 0 1145 1 1138 18 -3 9 -108 311 -232 670 l-227 652 -974 0 -974
0 6 -47z"/>
<path d="M0 1790 l0 -1750 2560 0 2560 0 0 1750 0 1750 -2560 0 -2560 0 0
-1750z m3113 1251 c16 -12 17 -75 17 -722 l0 -709 248 -2 247 -3 3 -23 c2 -12
-6 -34 -18 -50 -47 -59 -1026 -1003 -1047 -1008 -13 -4 -33 -4 -46 -1 -20 6
-746 742 -949 965 -77 83 -94 120 -65 139 6 4 116 10 242 13 l230 5 2 690 3
690 21 18 c20 16 57 17 559 15 437 -2 540 -6 553 -17z"/>
</g>
</svg>
