<?xml version="1.0" encoding="UTF-8" standalone="no"?>
<svg
   version="1.0"
   width="512.000000pt"
   height="512.000000pt"
   viewBox="0 0 512.000000 512.000000"
   preserveAspectRatio="xMidYMid meet"
   id="svg642"
   sodipodi:docname="boxes_board_list.svg"
   inkscape:version="1.2 (dc2aedaf03, 2022-05-15)"
   xmlns:inkscape="http://www.inkscape.org/namespaces/inkscape"
   xmlns:sodipodi="http://sodipodi.sourceforge.net/DTD/sodipodi-0.dtd"
   xmlns="http://www.w3.org/2000/svg"
   xmlns:svg="http://www.w3.org/2000/svg">
  <defs
     id="defs646" />
  <sodipodi:namedview
     id="namedview644"
     pagecolor="#ffffff"
     bordercolor="#000000"
     borderopacity="0.25"
     inkscape:showpageshadow="2"
     inkscape:pageopacity="0.0"
     inkscape:pagecheckerboard="0"
     inkscape:deskcolor="#d1d1d1"
     inkscape:document-units="pt"
     showgrid="false"
     inkscape:zoom="0.61303711"
     inkscape:cx="252.02389"
     inkscape:cy="228.37117"
     inkscape:window-width="1920"
     inkscape:window-height="1017"
     inkscape:window-x="1358"
     inkscape:window-y="-8"
     inkscape:window-maximized="1"
     inkscape:current-layer="svg642" />
  <g
     transform="matrix(0.11082203,0,0,-0.11082203,-28.343153,539.08213)"
     fill="#ffffff"
     stroke="none"
     id="g640"
     style="fill:#ffffff">
    <path
       d="m 1675,4870 c -178,-37 -319,-168 -364,-337 l -12,-43 h -99 c -132,0 -140,-8 -140,-132 v -88 H 835 c -125,0 -247,-5 -277,-11 -124,-26 -245,-124 -290,-237 l -23,-57 V 2250 535 l 32,-65 c 35,-72 96,-139 160,-177 94,-55 34,-53 1561,-53 h 1413 l 24,25 25,24 v 481 480 h 90 89 l 3,-486 3,-486 24,-19 c 22,-18 47,-19 593,-19 h 569 l 24,25 25,24 v 533 c -1,403 -4,537 -13,549 -28,37 -50,39 -376,39 h -321 v 478 c -1,359 -4,481 -13,493 -29,38 -46,39 -466,39 h -411 l -2,773 -3,772 -23,58 c -31,75 -114,165 -184,199 -84,41 -142,48 -383,48 h -225 v 88 c 0,80 -2,91 -23,110 -21,19 -34,22 -120,22 h -96 l -12,43 c -61,229 -305,383 -534,337 z m 220,-183 c 95,-48 156,-135 170,-242 13,-99 36,-115 166,-115 h 79 v -145 -145 h -545 -545 v 144 144 l 95,4 c 119,5 132,15 146,113 17,124 91,217 202,257 72,26 165,20 232,-15 z M 844,3469 c 37,-29 37,-89 -1,-119 -25,-20 -37,-21 -141,-18 -106,3 -115,5 -133,27 -26,32 -24,77 6,106 23,24 31,25 133,25 95,0 113,-3 136,-21 z m 1528,7 c 26,-19 39,-62 28,-90 -22,-58 4,-56 -703,-56 h -648 l -24,25 c -35,34 -34,86 1,114 26,21 34,21 678,21 518,-1 654,-3 668,-14 z M 850,2820 c 26,-26 27,-83 1,-109 -26,-26 -73,-34 -170,-30 -67,4 -83,8 -105,28 -32,30 -34,69 -5,105 20,25 23,26 140,26 106,0 121,-2 139,-20 z m 1519,10 c 31,-16 45,-64 29,-96 -26,-55 -14,-54 -689,-54 -646,0 -679,2 -699,40 -16,31 -11,79 10,100 20,20 33,20 676,20 400,0 662,-4 673,-10 z m 931,-730 c 0,-122 4,-168 15,-189 29,-57 72,-55 164,9 l 72,51 71,-51 c 40,-27 83,-50 96,-50 13,0 37,13 53,29 l 29,29 v 166 166 h 105 105 v -425 -425 h -460 -460 v 425 425 h 105 105 z m 340,84 v -76 l -34,21 c -42,26 -62,26 -104,1 -18,-11 -35,-20 -37,-20 -3,0 -5,34 -5,75 v 75 h 90 90 z M 851,2171 c 25,-31 24,-79 -3,-108 -20,-21 -29,-23 -135,-23 -108,0 -115,1 -138,25 -27,26 -33,71 -12,97 26,33 52,38 160,36 101,-3 110,-5 128,-27 z m 1522,9 c 13,-11 28,-31 31,-45 7,-29 -15,-79 -39,-89 -9,-3 -310,-6 -668,-6 h -651 l -23,22 c -38,36 -27,109 20,128 12,5 311,9 663,9 625,1 642,0 667,-19 z M 844,1529 c 20,-16 26,-29 26,-59 0,-30 -6,-43 -26,-59 -23,-18 -41,-21 -136,-21 -102,0 -110,1 -133,25 -16,15 -25,36 -25,55 0,19 9,40 25,55 23,24 31,25 133,25 95,0 113,-3 136,-21 z m 1221,-4 c 16,-15 25,-36 25,-55 0,-19 -9,-40 -25,-55 l -24,-25 h -494 c -485,0 -495,0 -521,21 -20,16 -26,29 -26,59 0,30 6,43 26,59 26,21 36,21 521,21 h 494 z m 527,-446 3,-171 29,-25 c 38,-32 66,-27 153,31 l 66,45 71,-49 c 80,-57 114,-63 151,-25 25,24 25,27 25,195 v 170 h 105 105 V 825 400 h -460 -460 v 425 425 h 104 105 z m 338,96 v -75 l -32,20 c -42,25 -79,25 -111,0 -14,-11 -28,-20 -31,-20 -3,0 -6,34 -6,75 v 75 h 90 90 z m 1080,-91 V 918 l 30,-30 c 40,-39 65,-34 153,27 l 66,46 72,-50 c 82,-58 117,-64 154,-26 25,24 25,27 25,195 v 170 h 105 105 V 825 400 h -460 -460 v 425 425 h 105 105 z m 340,90 v -76 l -34,21 c -18,12 -44,21 -56,21 -12,0 -38,-9 -56,-21 l -34,-21 v 76 76 h 90 90 z M 847,878 c 29,-27 30,-77 4,-109 -17,-22 -29,-24 -116,-27 -111,-5 -137,0 -165,30 -26,28 -26,68 1,102 20,25 23,26 137,26 105,0 118,-2 139,-22 z m 1218,-3 c 32,-31 32,-66 1,-102 l -24,-28 h -502 -502 l -19,24 c -25,31 -24,79 3,108 l 21,23 h 499 499 z"
       id="path638"
       style="fill:#ffffff" />
  </g>
</svg>
