<?xml version="1.0" standalone="no"?>
<!DOCTYPE svg PUBLIC "-//W3C//DTD SVG 20010904//EN"
 "http://www.w3.org/TR/2001/REC-SVG-20010904/DTD/svg10.dtd">
<svg version="1.0" xmlns="http://www.w3.org/2000/svg"
 width="512.000000pt" height="512.000000pt" viewBox="0 0 512.000000 512.000000"
 preserveAspectRatio="xMidYMid meet">

<g transform="translate(0.000000,512.000000) scale(0.100000,-0.100000)"
fill="#FFFFFF" stroke="none">
<path d="M2345 4968 l-190 -93 -237 -5 c-279 -6 -232 18 -411 -209 l-122 -153
-202 -98 c-166 -80 -204 -103 -217 -127 -8 -17 -36 -122 -62 -233 l-46 -203
-134 -168 c-96 -119 -137 -178 -141 -202 -3 -22 11 -106 42 -240 l47 -206 -47
-207 c-31 -135 -45 -218 -42 -241 4 -25 44 -82 141 -202 l134 -168 46 -203
c26 -111 54 -216 62 -233 13 -24 51 -47 217 -127 l202 -98 128 -161 c71 -88
140 -170 154 -181 24 -19 40 -20 248 -20 l222 0 199 -96 c163 -78 205 -94 234
-91 19 3 120 46 224 96 l189 91 216 0 c153 0 223 4 241 13 14 7 86 88 161 181
l136 169 201 97 c165 80 203 103 216 127 8 17 36 122 62 233 l46 203 134 168
c96 119 137 178 141 202 3 22 -11 106 -42 241 l-47 206 47 206 c31 135 45 219
42 241 -4 24 -45 83 -141 202 l-134 168 -46 203 c-26 111 -54 216 -62 233 -13
24 -51 47 -216 127 l-201 97 -136 169 c-75 93 -147 174 -161 181 -18 9 -88 13
-241 13 l-216 0 -189 91 c-104 50 -205 93 -224 96 -29 3 -69 -12 -225 -89z
m507 -518 c575 -121 1014 -562 1140 -1143 31 -146 31 -426 0 -574 -125 -582
-562 -1019 -1145 -1145 -146 -31 -427 -31 -570 0 -592 131 -1023 559 -1149
1145 -31 147 -31 427 0 574 134 622 621 1074 1253 1163 103 14 360 4 471 -20z"/>
<path d="M2386 4349 c-482 -67 -891 -386 -1069 -834 -310 -779 161 -1641 987
-1810 184 -37 410 -29 597 21 243 65 433 175 609 354 189 191 309 419 367 690
25 118 25 382 0 500 -116 548 -522 956 -1062 1066 -89 18 -339 26 -429 13z
m219 -603 c40 -17 75 -68 75 -109 0 -64 -54 -117 -120 -117 -66 0 -120 53
-120 117 0 40 35 92 73 108 41 18 50 18 92 1z m-801 -345 c26 -27 31 -39 31
-81 0 -43 -5 -54 -33 -82 -28 -28 -39 -33 -82 -33 -43 0 -54 5 -82 33 -28 28
-33 39 -33 81 0 52 25 92 70 112 37 16 96 3 129 -30z m1680 0 c26 -27 31 -39
31 -81 0 -43 -5 -54 -33 -82 -28 -28 -39 -33 -82 -33 -43 0 -54 5 -82 33 -28
28 -33 39 -33 81 0 52 25 92 70 112 37 16 96 3 129 -30z m-864 14 c20 -10 61
-69 141 -200 62 -102 117 -184 123 -182 6 3 67 41 136 86 108 70 131 81 168
81 54 0 96 -28 112 -74 9 -28 1 -91 -50 -396 -33 -199 -67 -375 -75 -391 -31
-60 -22 -59 -615 -59 -593 0 -584 -1 -615 59 -8 16 -42 192 -75 391 -51 305
-59 368 -50 396 16 46 58 74 112 74 37 0 60 -11 168 -81 69 -45 130 -83 136
-86 6 -2 61 80 123 182 73 120 122 190 139 200 35 19 86 19 122 0z"/>
<path d="M1187 1448 c-43 -55 -468 -615 -490 -648 -26 -38 -22 -102 8 -139 14
-16 34 -32 43 -35 9 -3 125 -26 257 -51 132 -25 242 -50 243 -55 2 -6 52 -109
112 -228 74 -151 115 -223 133 -235 39 -25 110 -22 141 6 29 25 686 888 686
900 0 5 -47 31 -105 58 l-106 49 -208 0 c-129 0 -221 4 -242 11 -59 20 -96 56
-225 217 -113 141 -165 190 -201 192 -6 0 -27 -19 -46 -42z"/>
<path d="M3843 1472 c-17 -9 -88 -87 -157 -174 -129 -161 -166 -197 -225 -217
-21 -7 -113 -11 -241 -11 l-207 0 -107 -50 c-58 -27 -106 -53 -106 -57 0 -12
658 -875 686 -900 33 -30 104 -31 143 -4 18 13 61 89 136 244 l110 225 190 36
c105 20 217 42 250 48 83 16 125 57 125 122 0 44 -7 55 -153 248 -336 444
-383 503 -397 505 -8 1 -29 -5 -47 -15z"/>
</g>
</svg>
