<?xml version="1.0" standalone="no"?>
<!DOCTYPE svg PUBLIC "-//W3C//DTD SVG 20010904//EN"
 "http://www.w3.org/TR/2001/REC-SVG-20010904/DTD/svg10.dtd">
<svg version="1.0" xmlns="http://www.w3.org/2000/svg"
 width="512.000000pt" height="512.000000pt" viewBox="0 0 512.000000 512.000000"
 preserveAspectRatio="xMidYMid meet">

<g transform="translate(0.000000,512.000000) scale(0.100000,-0.100000)"
fill="#ffffff" stroke="none">
<path d="M1506 4949 c-62 -15 -153 -68 -197 -116 -22 -24 -55 -74 -72 -111
l-32 -67 -3 -767 -3 -768 241 0 240 0 0 615 0 616 25 24 24 25 1151 0 1151 0
24 -25 25 -24 0 -1551 0 -1551 -25 -24 -24 -25 -774 0 -775 0 -4 -129 c-4
-124 -5 -131 -41 -203 -44 -91 -102 -147 -195 -191 l-67 -32 -489 -3 -488 -3
6 -52 c9 -74 66 -186 122 -236 25 -24 75 -57 112 -74 l67 -32 1375 0 1375 0
67 32 c93 44 151 100 196 191 l37 76 0 2055 0 2056 -32 67 c-44 93 -100 151
-191 196 l-76 37 -1355 2 c-797 1 -1372 -3 -1395 -8z m2494 -3989 l0 -80 -680
0 -680 0 0 80 0 80 680 0 680 0 0 -80z"/>
<path d="M1840 4080 l0 -160 160 0 160 0 0 160 0 160 -160 0 -160 0 0 -160z"/>
<path d="M2320 4080 l0 -160 360 0 360 0 0 160 0 160 -360 0 -360 0 0 -160z"/>
<path d="M3200 4080 l0 -160 360 0 360 0 0 160 0 160 -360 0 -360 0 0 -160z"/>
<path d="M1840 3440 l0 -320 144 0 c79 0 151 -3 160 -6 14 -6 16 27 16 320 l0
326 -160 0 -160 0 0 -320z"/>
<path d="M2320 3404 l0 -357 46 -49 c25 -27 60 -79 77 -116 l32 -67 3 -727 3
-728 279 0 280 0 0 1200 0 1200 -360 0 -360 0 0 -356z"/>
<path d="M3200 2560 l0 -1200 360 0 360 0 0 1200 0 1200 -360 0 -360 0 0
-1200z"/>
<path d="M640 2947 c-49 -16 -133 -102 -148 -153 -17 -59 -17 -1769 0 -1828
16 -55 99 -138 154 -154 31 -9 224 -12 756 -12 814 0 776 -4 851 80 24 26 49
66 55 88 17 56 17 1768 0 1824 -6 22 -31 62 -55 88 -75 84 -36 80 -857 79
-495 -1 -732 -4 -756 -12z m1335 -332 l25 -24 0 -231 0 -231 -25 -24 -24 -25
-551 0 -551 0 -24 25 -25 24 0 231 0 231 25 24 24 25 551 0 551 0 24 -25z
m-855 -775 l0 -80 -120 0 -120 0 0 80 0 80 120 0 120 0 0 -80z m400 0 l0 -80
-120 0 -120 0 0 80 0 80 120 0 120 0 0 -80z m400 0 l0 -80 -120 0 -120 0 0 80
0 80 120 0 120 0 0 -80z m-800 -320 l0 -80 -120 0 -120 0 0 80 0 80 120 0 120
0 0 -80z m400 0 l0 -80 -120 0 -120 0 0 80 0 80 120 0 120 0 0 -80z m400 0 l0
-80 -120 0 -120 0 0 80 0 80 120 0 120 0 0 -80z m-800 -320 l0 -80 -120 0
-120 0 0 80 0 80 120 0 120 0 0 -80z m400 0 l0 -80 -120 0 -120 0 0 80 0 80
120 0 120 0 0 -80z m400 0 l0 -80 -120 0 -120 0 0 80 0 80 120 0 120 0 0 -80z"/>
</g>
</svg>
