<?xml version="1.0" encoding="UTF-8" standalone="no"?>
<svg
   version="1.0"
   width="512.000000pt"
   height="512.000000pt"
   viewBox="0 0 512.000000 512.000000"
   preserveAspectRatio="xMidYMid meet"
   id="svg519"
   sodipodi:docname="calendar30.svg"
   inkscape:version="1.2 (dc2aedaf03, 2022-05-15)"
   xmlns:inkscape="http://www.inkscape.org/namespaces/inkscape"
   xmlns:sodipodi="http://sodipodi.sourceforge.net/DTD/sodipodi-0.dtd"
   xmlns="http://www.w3.org/2000/svg"
   xmlns:svg="http://www.w3.org/2000/svg">
  <defs
     id="defs523" />
  <sodipodi:namedview
     id="namedview521"
     pagecolor="#ffffff"
     bordercolor="#000000"
     borderopacity="0.25"
     inkscape:showpageshadow="2"
     inkscape:pageopacity="0.0"
     inkscape:pagecheckerboard="0"
     inkscape:deskcolor="#d1d1d1"
     inkscape:document-units="pt"
     showgrid="false"
     inkscape:zoom="0.61303711"
     inkscape:cx="-98.688968"
     inkscape:cy="495.89168"
     inkscape:window-width="1920"
     inkscape:window-height="1017"
     inkscape:window-x="-8"
     inkscape:window-y="-8"
     inkscape:window-maximized="1"
     inkscape:current-layer="g517" />
  <g
     transform="translate(0.000000,512.000000) scale(0.100000,-0.100000)"
     fill="#ffffff"
     stroke="none"
     id="g517"
     style="fill:#000000">
    <path
       d="M688 5099 c-58 -30 -78 -79 -78 -189 l0 -90 -100 0 c-177 0 -276 -36 -376 -135 -65 -65 -105 -136 -123 -223 -7 -34 -11 -196 -11 -447 l0 -395 2560 0 2560 0 0 395 c0 256 -4 413 -11 447 -19 86 -59 158 -124 224 -98 99 -197 134 -375 134 l-100 0 0 90 c0 112 -20 159 -80 190 -50 25 -90 25 -140 0 -60 -31 -80 -78 -80 -190 l0 -90 -300 0 -300 0 0 90 c0 112 -20 159 -80 190 -50 25 -90 25 -140 0 -60 -31 -80 -78 -80 -190 l0 -90 -300 0 -300 0 0 90 c0 112 -20 159 -80 190 -50 25 -90 25 -140 0 -60 -31 -80 -78 -80 -190 l0 -90 -300 0 -300 0 0 90 c0 71 -4 99 -20 130 -23 45 -80 80 -130 80 -50 0 -107 -35 -130 -80 -16 -31 -20 -59 -20 -130 l0 -90 -300 0 -300 0 0 90 c0 112 -20 159 -80 190 -49 25 -94 25 -142 -1z m222 -519 c0 -222 -2 -244 -20 -280 -23 -45 -80 -80 -131 -80 -46 0 -108 39 -130 82 -17 33 -19 61 -19 278 l0 240 150 0 150 0 0 -240z m900 0 c0 -222 -2 -244 -20 -280 -23 -45 -80 -80 -131 -80 -46 0 -108 39 -130 82 -17 33 -19 61 -19 278 l0 240 150 0 150 0 0 -240z m900 0 c0 -222 -2 -244 -20 -280 -23 -45 -80 -80 -131 -80 -46 0 -108 39 -130 82 -17 33 -19 61 -19 278 l0 240 150 0 150 0 0 -240z m900 0 c0 -222 -2 -244 -20 -280 -23 -45 -80 -80 -131 -80 -46 0 -108 39 -130 82 -17 33 -19 61 -19 278 l0 240 150 0 150 0 0 -240z m900 0 c0 -222 -2 -244 -20 -280 -23 -45 -80 -80 -131 -80 -46 0 -108 39 -130 82 -17 33 -19 61 -19 278 l0 240 150 0 150 0 0 -240z"
       id="path511"
       style="fill:#ffffff" />
    <path
       id="path513"
       style="fill:#ffffff"
       d="M 0 3320 L 0 1865 C 0 819.00105 3.0009846 395.99801 11.000977 357.99805 C 48.00094 185.99822 185.99334 48.005822 357.99316 11.005859 C 432.99309 -4.9941246 4686.002 -4.9941246 4762.002 11.005859 C 4932.0018 47.005823 5072.9942 188.99822 5108.9941 357.99805 C 5116.9941 394.99801 5119.9951 839.00103 5119.9951 1865 L 5119.9951 3320 L 2560.0049 3320 L 0 3320 z M 1688.291 2949.2334 C 1800.796 2949.2334 1900.1248 2935.5263 1986.2988 2908.1006 C 2073.6697 2880.6749 2146.6907 2840.7811 2205.3369 2788.4229 C 2265.18 2737.3113 2310.0638 2673.7296 2339.9854 2597.6855 C 2371.1038 2522.8881 2386.6553 2438.1175 2386.6553 2343.374 C 2386.6553 2269.8232 2377.6844 2201.2585 2359.7314 2137.6807 C 2341.7785 2074.1028 2315.4414 2017.3894 2280.7324 1967.5244 C 2246.0234 1917.6594 2202.3348 1875.2668 2149.6729 1840.3613 C 2098.2078 1805.4558 2038.3627 1779.2838 1970.1416 1761.8311 L 1970.1416 1756.2207 C 2051.5282 1746.2477 2124.5492 1724.4303 2189.1797 1690.7715 C 2253.8102 1658.3593 2308.2552 1617.2087 2352.5391 1567.3437 C 2398.0198 1517.4788 2432.7376 1460.7653 2456.6748 1397.1875 C 2480.612 1334.8563 2492.5781 1267.5337 2492.5781 1195.2295 C 2492.5781 1074.3069 2470.4313 967.10522 2426.1475 873.6084 C 2381.8636 780.11157 2320.2331 701.56612 2241.2402 637.98828 C 2162.2474 574.41044 2067.6992 525.79265 1957.5879 492.13379 C 1847.4766 459.72156 1727.1816 443.51562 1596.7236 443.51562 C 1517.7308 443.51562 1443.5293 449.75544 1374.1113 462.22168 C 1304.6933 473.4413 1243.0482 487.77675 1189.1895 505.22949 C 1136.5275 522.68223 1092.8535 540.75864 1058.1445 559.45801 C 1023.4355 578.15737 1000.6839 592.49283 989.91211 602.46582 C 979.14035 612.43882 970.77435 623.66169 964.79004 636.12793 C 960.00259 648.59417 955.20737 662.92963 950.41992 679.13574 C 946.82934 696.58848 943.83415 717.77747 941.44043 742.70996 C 940.24357 768.88907 939.65332 800.05883 939.65332 836.21094 C 939.65332 896.04891 944.4339 937.18479 954.00879 959.62402 C 963.58368 983.30989 977.95471 995.14648 997.10449 995.14648 C 1009.0731 995.14648 1029.4199 986.42247 1058.1445 968.96973 C 1088.0661 952.76361 1125.7644 934.6872 1171.2451 914.74121 C 1216.7259 896.04185 1269.9903 877.96544 1331.0303 860.5127 C 1392.0702 844.30658 1461.4765 836.21094 1539.2725 836.21094 C 1605.0999 836.21094 1663.1595 844.30658 1713.4277 860.5127 C 1763.6959 876.71881 1806.1748 899.16455 1840.8838 927.83691 C 1876.7896 957.7559 1903.1267 993.28034 1919.8828 1034.4189 C 1937.8357 1076.8042 1946.8066 1123.5515 1946.8066 1174.6631 C 1946.8066 1230.7612 1936.0357 1281.2495 1914.4922 1326.1279 C 1894.1455 1371.0064 1863.0279 1409.0297 1821.1377 1440.1953 C 1780.4444 1472.6075 1728.3751 1497.5375 1664.9414 1514.9902 C 1602.7046 1532.443 1529.108 1541.167 1444.1309 1541.167 L 1243.0518 1541.167 C 1227.4926 1541.167 1214.3313 1543.0375 1203.5596 1546.7773 C 1192.7878 1551.7638 1183.8023 1561.1162 1176.6211 1574.8291 C 1169.4399 1588.542 1164.0545 1607.2468 1160.4639 1630.9326 C 1158.0701 1655.8651 1156.875 1687.6486 1156.875 1726.2939 C 1156.875 1762.4461 1158.0701 1791.7453 1160.4639 1814.1846 C 1164.0545 1837.8704 1168.8497 1855.9468 1174.834 1868.4131 C 1182.0152 1880.8793 1190.3958 1889.6033 1199.9707 1894.5898 C 1210.7425 1899.5763 1223.2988 1902.0752 1237.6611 1902.0752 L 1440.542 1902.0752 C 1509.96 1902.0752 1571.5904 1910.1708 1625.4492 1926.377 C 1679.308 1943.8297 1724.1918 1968.1459 1760.0977 1999.3115 C 1797.2004 2030.4771 1825.3229 2067.8721 1844.4727 2111.5039 C 1863.6224 2156.3824 1873.1982 2205.6286 1873.1982 2259.2334 C 1873.1982 2300.372 1866.6176 2339.009 1853.4521 2375.1611 C 1840.2867 2412.5599 1820.5448 2444.358 1794.2139 2470.5371 C 1769.0798 2497.9628 1736.162 2519.1518 1695.4688 2534.1113 C 1654.7755 2550.3174 1606.8965 2558.4131 1551.8408 2558.4131 C 1489.604 2558.4131 1430.9541 2548.447 1375.8984 2528.501 C 1320.8428 2509.8016 1271.1784 2488.6126 1226.8945 2464.9268 C 1183.8075 2442.4875 1146.6995 2421.2839 1115.5811 2401.3379 C 1085.6595 2381.3919 1063.5274 2371.4258 1049.165 2371.4258 C 1039.5901 2371.4258 1031.2095 2373.2963 1024.0283 2377.0361 C 1016.8472 2382.0226 1010.8568 2390.7466 1006.0693 2403.2129 C 1001.2819 2415.6791 997.69646 2433.7555 995.30273 2457.4414 C 992.90901 2481.1273 991.71387 2511.6687 991.71387 2549.0674 C 991.71387 2580.233 992.30411 2605.7913 993.50098 2625.7373 C 994.69784 2646.9299 997.10277 2664.378 1000.6934 2678.0908 C 1004.2839 2691.8037 1008.4743 2703.6549 1013.2617 2713.6279 C 1019.246 2723.6009 1028.2169 2734.1954 1040.1855 2745.415 C 1052.1542 2757.8813 1076.6912 2775.9577 1113.7939 2799.6436 C 1150.8967 2823.3294 1197.5659 2846.3889 1253.8184 2868.8281 C 1310.0709 2891.2674 1374.7112 2909.9721 1447.7197 2924.9316 C 1521.9252 2941.1378 1602.117 2949.2334 1688.291 2949.2334 z M 3605.6543 2949.2334 C 3764.8369 2949.2334 3896.4931 2920.5625 4000.6201 2863.2178 C 4105.9439 2807.1197 4189.131 2725.4616 4250.1709 2618.252 C 4311.2108 2512.2889 4353.7044 2382.0131 4377.6416 2227.4316 C 4401.5788 2074.0968 4413.5449 1900.2009 4413.5449 1705.7275 C 4413.5449 1512.5008 4398.5837 1337.9765 4368.6621 1182.1484 C 4338.7406 1026.3204 4289.6664 893.54572 4221.4453 783.84277 C 4154.4211 674.13983 4066.4535 589.99759 3957.5391 531.40625 C 3849.8215 472.81491 3717.575 443.51562 3560.7861 443.51562 C 3401.6035 443.51562 3269.9473 471.5728 3165.8203 527.6709 C 3061.6933 585.01562 2979.0966 666.659 2918.0566 772.62207 C 2857.0167 879.83176 2813.9329 1010.1076 2788.7988 1163.4424 C 2764.8616 1318.0238 2752.8955 1492.5481 2752.8955 1687.0215 C 2752.8955 1879.0016 2767.8568 2052.9122 2797.7783 2208.7402 C 2828.8967 2365.8149 2877.9709 2499.2033 2944.9951 2608.9062 C 3013.2162 2718.6092 3101.1838 2802.7514 3208.9014 2861.3428 C 3317.8158 2919.9341 3450.0623 2949.2334 3605.6543 2949.2334 z M 3585.9082 2560.2881 C 3515.2934 2560.2881 3456.6581 2542.2117 3409.9805 2506.0596 C 3364.4997 2471.1541 3327.9819 2418.167 3300.4541 2347.1094 C 3274.1231 2276.0518 3255.5764 2187.5402 3244.8047 2081.5771 C 3234.0329 1975.6141 3228.6475 1852.2064 3228.6475 1711.3379 C 3228.6475 1539.3037 3235.2281 1396.5629 3248.3936 1283.1201 C 3261.559 1170.9239 3281.9058 1081.1703 3309.4336 1013.8525 C 3338.1583 947.78145 3374.6614 901.03413 3418.9453 873.6084 C 3463.2292 847.42929 3516.4937 834.33594 3578.7305 834.33594 C 3625.4081 834.33594 3666.7065 841.81785 3702.6123 856.77734 C 3738.5182 872.98346 3769.6358 896.67131 3795.9668 927.83691 C 3823.4946 959.00252 3846.2316 998.26792 3864.1846 1045.6396 C 3882.1375 1093.0114 3896.4939 1147.8543 3907.2656 1210.1855 C 3919.2342 1272.5168 3927.0246 1342.9519 3930.6152 1421.4893 C 3935.4027 1500.0266 3937.793 1586.6677 3937.793 1681.4111 C 3937.793 1796.1006 3934.7978 1897.0771 3928.8135 1984.3408 C 3922.8292 2072.8511 3913.2534 2149.5261 3900.0879 2214.3506 C 3888.1193 2279.1751 3872.5678 2334.018 3853.418 2378.8965 C 3835.465 2423.775 3813.3183 2459.3141 3786.9873 2485.4932 C 3760.6563 2512.9189 3730.7338 2532.2374 3697.2217 2543.457 C 3663.7096 2554.6767 3626.6015 2560.2881 3585.9082 2560.2881 z " />
  </g>
</svg>
