<?xml version="1.0" standalone="no"?>
<!DOCTYPE svg PUBLIC "-//W3C//DTD SVG 20010904//EN"
 "http://www.w3.org/TR/2001/REC-SVG-20010904/DTD/svg10.dtd">
<svg version="1.0" xmlns="http://www.w3.org/2000/svg"
 width="512.000000pt" height="512.000000pt" viewBox="0 0 512.000000 512.000000"
 preserveAspectRatio="xMidYMid meet">

<g transform="translate(0.000000,512.000000) scale(0.100000,-0.100000)"
fill="#ffffff" stroke="none">
<path d="M815 4946 c-37 -17 -70 -52 -84 -89 -6 -16 -11 -88 -11 -162 l0 -133
-162 -4 c-148 -4 -168 -6 -213 -28 -63 -31 -124 -91 -155 -155 -25 -49 -25
-55 -28 -332 l-3 -283 2081 0 2081 0 -3 283 -3 282 -34 63 c-60 110 -144 161
-278 170 l-82 5 -3 -151 c-3 -134 -5 -154 -24 -178 -43 -58 -68 -69 -167 -72
-85 -2 -90 -1 -62 11 41 19 83 70 90 110 3 18 5 154 3 304 -3 256 -4 273 -24
299 -39 53 -71 69 -134 69 -63 0 -95 -16 -134 -69 -19 -24 -21 -44 -24 -177
l-3 -149 -199 0 -199 0 -3 -149 c-3 -133 -5 -153 -24 -177 -43 -58 -68 -69
-167 -72 -85 -2 -90 -1 -62 11 41 19 83 70 90 110 3 18 5 154 3 304 -3 256 -4
273 -24 299 -39 53 -71 69 -134 69 -63 0 -95 -16 -134 -69 -19 -24 -21 -44
-24 -177 l-3 -149 -239 0 -239 0 -3 -149 c-3 -133 -5 -153 -24 -177 -43 -58
-68 -69 -167 -72 -85 -2 -90 -1 -62 11 41 19 83 70 90 110 3 18 5 154 3 304
-3 256 -4 273 -24 299 -39 53 -71 69 -134 69 -63 0 -95 -16 -134 -69 -19 -24
-21 -44 -24 -177 l-3 -149 -199 0 -199 0 -3 -149 c-3 -133 -5 -153 -24 -177
-43 -58 -68 -69 -167 -72 -85 -2 -90 -1 -62 11 41 19 83 70 90 110 3 18 5 154
3 304 -3 256 -4 273 -24 299 -11 15 -32 37 -46 47 -34 25 -113 32 -153 13z"/>
<path d="M162 2238 l3 -1363 23 -45 c35 -72 75 -114 144 -151 l63 -34 1362 -3
1362 -2 -25 72 c-88 258 -65 551 62 801 96 190 266 358 463 458 l56 28 -197 1
-198 0 0 240 0 240 240 0 240 0 0 -226 c0 -211 1 -226 18 -219 41 16 154 36
242 41 85 6 244 -7 285 -22 13 -5 15 90 15 770 l0 776 -2080 0 -2080 0 2
-1362z m958 882 l0 -240 -240 0 -240 0 0 240 0 240 240 0 240 0 0 -240z m880
0 l0 -240 -240 0 -240 0 0 240 0 240 240 0 240 0 0 -240z m880 0 l0 -240 -240
0 -240 0 0 240 0 240 240 0 240 0 0 -240z m880 0 l0 -240 -240 0 -240 0 0 240
0 240 240 0 240 0 0 -240z m-2640 -880 l0 -240 -240 0 -240 0 0 240 0 240 240
0 240 0 0 -240z m880 0 l0 -240 -240 0 -240 0 0 240 0 240 240 0 240 0 0 -240z
m880 0 l0 -240 -240 0 -240 0 0 240 0 240 240 0 240 0 0 -240z m-1760 -880 l0
-240 -240 0 -240 0 0 240 0 240 240 0 240 0 0 -240z m880 0 l0 -240 -240 0
-240 0 0 240 0 240 240 0 240 0 0 -240z m880 0 l0 -240 -240 0 -240 0 0 240 0
240 240 0 240 0 0 -240z"/>
<path d="M3917 1904 c-164 -30 -329 -116 -453 -239 -349 -344 -351 -899 -4
-1245 346 -347 901 -345 1245 4 338 342 338 890 0 1232 -206 209 -497 301
-788 248z m243 -473 l0 -248 35 -37 c102 -109 12 -283 -137 -263 -39 5 -45 2
-185 -110 -79 -64 -145 -114 -147 -112 -1 2 -24 30 -49 63 l-47 58 145 116
c127 101 145 119 145 145 0 38 26 93 56 116 l24 19 0 251 0 251 80 0 80 0 0
-249z"/>
</g>
</svg>
