<?xml version="1.0" encoding="UTF-8" standalone="no"?>
<svg
   version="1.0"
   width="512.000000pt"
   height="512.000000pt"
   viewBox="0 0 512.000000 512.000000"
   preserveAspectRatio="xMidYMid meet"
   id="svg7268"
   sodipodi:docname="categories_4_box.svg"
   inkscape:version="1.2 (dc2aedaf03, 2022-05-15)"
   xmlns:inkscape="http://www.inkscape.org/namespaces/inkscape"
   xmlns:sodipodi="http://sodipodi.sourceforge.net/DTD/sodipodi-0.dtd"
   xmlns="http://www.w3.org/2000/svg"
   xmlns:svg="http://www.w3.org/2000/svg">
  <defs
     id="defs7272" />
  <sodipodi:namedview
     id="namedview7270"
     pagecolor="#ffffff"
     bordercolor="#000000"
     borderopacity="0.25"
     inkscape:showpageshadow="2"
     inkscape:pageopacity="0.0"
     inkscape:pagecheckerboard="0"
     inkscape:deskcolor="#d1d1d1"
     inkscape:document-units="pt"
     showgrid="false"
     inkscape:zoom="0.61303711"
     inkscape:cx="136.20709"
     inkscape:cy="381.70609"
     inkscape:window-width="1920"
     inkscape:window-height="1017"
     inkscape:window-x="1358"
     inkscape:window-y="-8"
     inkscape:window-maximized="1"
     inkscape:current-layer="svg7268" />
  <g
     transform="matrix(0.10967116,0,0,-0.10913894,-24.738565,535.40269)"
     fill="#000000"
     stroke="none"
     id="g7266"
     style="fill:#ffffff">
    <path
       d="m 852,4830 c -241,-33 -446,-198 -528,-425 -40,-109 -46,-215 -42,-690 5,-486 6,-494 73,-630 64,-131 165,-230 300,-295 139,-66 121,-65 840,-65 h 650 l 67,33 c 76,37 120,82 157,162 l 26,55 3,618 c 2,509 0,634 -12,704 -27,155 -121,311 -243,403 -63,48 -174,102 -248,120 -60,15 -944,23 -1043,10 z"
       id="path7258"
       style="fill:#ffffff" />
    <path
       d="m 3325,4834 c -147,-19 -248,-59 -352,-138 -80,-60 -136,-131 -184,-231 -69,-141 -70,-161 -67,-866 l 3,-624 26,-55 c 37,-80 81,-125 157,-162 l 67,-33 h 650 c 719,0 701,-1 840,65 135,65 236,164 300,295 70,141 70,144 70,695 0,441 -2,502 -18,560 -51,189 -175,343 -342,425 -138,68 -140,68 -655,71 -256,1 -478,0 -495,-2 z"
       id="path7260"
       style="fill:#ffffff" />
    <path
       d="m 805,2384 c -86,-17 -213,-78 -282,-134 -106,-87 -194,-230 -224,-365 -11,-46 -14,-174 -14,-550 0,-436 2,-497 18,-555 64,-237 240,-413 477,-477 58,-16 119,-18 560,-18 557,0 552,0 708,76 118,57 215,157 277,282 75,150 76,166 73,884 l -3,618 -33,67 c -37,76 -82,120 -162,157 l -55,26 -635,2 c -510,1 -649,-1 -705,-13 z"
       id="path7262"
       style="fill:#ffffff" />
    <path
       d="m 2969,2386 c -102,-27 -171,-87 -218,-186 l -26,-55 -3,-624 c -3,-698 -1,-724 63,-859 86,-181 235,-304 435,-359 58,-16 116,-18 560,-18 551,0 554,0 695,70 167,82 291,236 342,425 16,58 18,119 18,560 0,444 -2,502 -18,560 -69,254 -263,438 -511,485 -104,20 -1263,21 -1337,1 z"
       id="path7264"
       style="fill:#ffffff" />
  </g>
</svg>
