<?xml version="1.0" standalone="no"?>
<!DOCTYPE svg PUBLIC "-//W3C//DTD SVG 20010904//EN"
 "http://www.w3.org/TR/2001/REC-SVG-20010904/DTD/svg10.dtd">
<svg version="1.0" xmlns="http://www.w3.org/2000/svg"
 width="512.000000pt" height="512.000000pt" viewBox="0 0 512.000000 512.000000"
 preserveAspectRatio="xMidYMid meet">

<g transform="translate(0.000000,512.000000) scale(0.100000,-0.100000)"
fill="#FFFFFF" stroke="none">
<path d="M69 4597 c-19 -12 -42 -38 -51 -57 -17 -33 -18 -148 -18 -1980 0
-1832 1 -1947 18 -1980 9 -19 32 -45 51 -57 l34 -23 1957 0 1957 0 34 23 c67
45 69 55 69 413 l0 321 -90 6 c-448 32 -851 297 -1058 696 -106 203 -145 367
-145 601 0 234 39 398 145 601 161 310 462 557 792 650 85 24 243 49 309 49
l47 0 0 323 c0 359 -2 369 -69 414 l-34 23 -696 0 c-649 0 -698 -1 -723 -18
-15 -10 -166 -201 -337 -425 -341 -449 -340 -447 -303 -530 30 -68 57 -81 181
-87 l105 -5 -230 -261 -229 -260 -5 205 c-5 196 -6 208 -28 239 -39 53 -67 62
-202 62 -66 0 -120 4 -120 8 0 5 126 204 280 442 274 423 280 434 280 484 0
57 -21 97 -66 127 -28 18 -64 19 -925 19 l-896 0 -34 -23z"/>
<path d="M3990 3554 c-208 -38 -349 -101 -503 -223 -152 -121 -279 -322 -333
-526 -23 -86 -27 -120 -27 -245 0 -125 4 -159 27 -245 95 -362 361 -627 731
-728 113 -30 363 -30 477 1 186 51 334 136 463 266 393 396 393 1016 0 1412
-130 131 -281 217 -463 265 -75 20 -310 34 -372 23z m-92 -579 c20 -9 79 -57
129 -107 l93 -92 98 96 c54 54 111 102 126 108 69 26 146 -1 183 -66 46 -80
26 -134 -99 -260 l-92 -94 101 -103 c107 -108 123 -139 109 -208 -15 -75 -96
-129 -172 -114 -36 6 -47 15 -212 169 l-42 40 -98 -96 c-98 -98 -129 -118
-183 -118 -59 0 -123 52 -140 112 -18 68 0 103 106 208 52 52 95 99 95 105 0
6 -39 49 -86 95 -125 124 -144 172 -103 256 14 30 32 48 62 63 50 25 75 26
125 6z"/>
</g>
</svg>
