<?xml version="1.0" standalone="no"?>
<!DOCTYPE svg PUBLIC "-//W3C//DTD SVG 20010904//EN"
 "http://www.w3.org/TR/2001/REC-SVG-20010904/DTD/svg10.dtd">
<svg version="1.0" xmlns="http://www.w3.org/2000/svg"
 width="512.000000pt" height="512.000000pt" viewBox="0 0 512.000000 512.000000"
 preserveAspectRatio="xMidYMid meet">

<g transform="translate(0.000000,512.000000) scale(0.100000,-0.100000)"
fill="#FFFFFF" stroke="none">
<path d="M4440 4953 c-8 -3 -24 -13 -34 -22 -35 -30 -406 -535 -406 -553 0
-10 9 -27 20 -38 17 -17 33 -20 119 -20 l99 0 6 -31 c19 -97 -9 -254 -64 -358
-43 -80 -110 -153 -186 -203 -35 -23 -64 -45 -64 -49 0 -4 70 -59 156 -123
l155 -117 37 27 c181 135 307 300 376 495 34 95 66 251 66 321 l0 38 100 0
c87 0 103 3 120 20 11 11 20 27 20 36 0 17 -373 525 -408 558 -21 18 -86 30
-112 19z"/>
<path d="M2392 4541 c-26 -12 -332 -274 -749 -638 l-705 -618 199 -3 199 -2
690 342 689 343 0 210 c0 229 -3 243 -64 308 -63 69 -180 95 -259 58z"/>
<path d="M3100 3976 c-30 -12 -356 -174 -725 -359 l-670 -336 868 0 868 -1 -3
278 c-3 308 -3 307 -74 376 -68 66 -169 82 -264 42z"/>
<path d="M546 3109 c-62 -15 -153 -68 -197 -116 -22 -24 -55 -74 -72 -111
l-32 -67 0 -1136 0 -1135 37 -76 c45 -91 103 -147 196 -191 l67 -32 1816 0
1815 0 76 37 c91 45 147 103 191 196 l32 67 3 287 3 287 -453 3 -453 3 -60 28
c-107 50 -172 135 -211 278 -15 51 -18 102 -18 249 0 147 3 198 18 249 39 143
104 228 211 278 l60 28 453 3 453 3 -3 287 -3 287 -32 67 c-44 93 -100 151
-191 196 l-76 37 -1795 2 c-1062 0 -1812 -3 -1835 -8z"/>
<path d="M3593 2069 c-55 -16 -100 -70 -125 -152 -20 -63 -23 -93 -23 -237 0
-144 3 -174 23 -237 26 -84 70 -136 129 -152 57 -16 1063 -15 1117 1 55 16
138 99 154 154 16 56 16 412 0 468 -16 55 -99 138 -154 154 -50 15 -1070 16
-1121 1z m478 -110 c67 -36 98 -68 137 -143 22 -43 26 -64 26 -136 1 -78 -2
-90 -33 -148 -38 -70 -70 -100 -145 -140 -43 -22 -64 -26 -136 -26 -72 0 -93
4 -136 26 -75 40 -107 70 -145 140 -31 58 -34 70 -33 148 0 100 24 160 89 225
100 100 249 121 376 54z"/>
<path d="M3855 1826 c-101 -44 -125 -178 -46 -257 65 -65 157 -65 222 0 124
124 -15 327 -176 257z"/>
</g>
</svg>
