<?xml version="1.0" standalone="no"?>
<!DOCTYPE svg PUBLIC "-//W3C//DTD SVG 20010904//EN"
 "http://www.w3.org/TR/2001/REC-SVG-20010904/DTD/svg10.dtd">
<svg version="1.0" xmlns="http://www.w3.org/2000/svg"
 width="512.000000pt" height="512.000000pt" viewBox="0 0 512.000000 512.000000"
 preserveAspectRatio="xMidYMid meet">

<g transform="translate(0.000000,512.000000) scale(0.100000,-0.100000)"
fill="#ffffff" stroke="none">
<path d="M698 5099 c-23 -12 -46 -35 -58 -59 -20 -39 -20 -55 -20 -2180 0
-2126 0 -2141 20 -2180 13 -26 34 -47 60 -60 38 -20 57 -20 941 -20 854 0 901
1 896 17 -3 10 -19 56 -36 103 -56 160 -75 275 -75 475 0 192 10 271 60 442
32 112 115 286 190 398 61 93 214 260 297 327 l49 38 -242 0 c-232 0 -244 1
-282 22 -45 25 -78 80 -78 128 0 50 35 107 81 130 40 21 48 21 827 17 766 -3
790 -4 882 -25 52 -12 98 -22 103 -22 4 0 7 529 7 1175 0 1159 0 1176 -20
1215 -13 26 -34 47 -60 60 -39 20 -55 20 -1772 20 -1706 -1 -1734 -1 -1770
-21z m1342 -619 c26 -13 47 -34 60 -60 19 -37 20 -58 20 -370 0 -312 -1 -333
-20 -370 -13 -26 -34 -47 -60 -60 -37 -19 -58 -20 -371 -20 -481 0 -449 -32
-449 452 1 375 2 379 76 424 39 24 40 24 372 24 314 0 335 -1 372 -20z m1600
0 c45 -23 80 -80 80 -130 0 -50 -35 -107 -80 -130 -38 -19 -58 -20 -571 -20
l-531 0 -40 22 c-101 57 -102 194 -2 254 l39 24 533 0 c514 0 534 -1 572 -20z
m-400 -600 c45 -23 80 -80 80 -130 0 -50 -35 -107 -80 -130 -37 -19 -58 -20
-371 -20 -325 0 -332 0 -371 22 -101 57 -102 194 -2 254 39 24 40 24 372 24
314 0 335 -1 372 -20z m-1200 -600 c26 -13 47 -34 60 -60 19 -37 20 -58 20
-370 0 -312 -1 -333 -20 -370 -13 -26 -34 -47 -60 -60 -37 -19 -58 -20 -371
-20 -481 0 -449 -32 -449 452 1 375 2 379 76 424 39 24 40 24 372 24 314 0
335 -1 372 -20z m1600 0 c45 -23 80 -80 80 -130 0 -50 -35 -107 -80 -130 -38
-19 -58 -20 -571 -20 l-531 0 -40 22 c-101 57 -102 194 -2 254 l39 24 533 0
c514 0 534 -1 572 -20z m-1600 -1200 c26 -13 47 -34 60 -60 19 -37 20 -58 20
-370 0 -312 -1 -333 -20 -370 -13 -26 -34 -47 -60 -60 -37 -19 -58 -20 -371
-20 -481 0 -449 -32 -449 452 1 375 2 379 76 424 39 24 40 24 372 24 314 0
335 -1 372 -20z"/>
<path d="M1520 4050 l0 -150 150 0 150 0 0 150 0 150 -150 0 -150 0 0 -150z"/>
<path d="M1520 2850 l0 -150 150 0 150 0 0 150 0 150 -150 0 -150 0 0 -150z"/>
<path d="M1520 1650 l0 -150 150 0 150 0 0 150 0 150 -150 0 -150 0 0 -150z"/>
<path d="M78 4499 c-23 -12 -46 -35 -58 -59 -20 -39 -20 -55 -20 -2180 0
-2126 0 -2141 20 -2180 13 -26 34 -47 60 -60 39 -20 53 -20 1485 -18 l1445 3
-75 67 c-41 37 -108 103 -147 148 l-72 80 -992 0 c-703 0 -1009 3 -1046 11
-171 37 -310 176 -347 347 -8 38 -11 576 -11 1957 l0 1905 -102 0 c-83 -1
-110 -5 -140 -21z"/>
<path d="M3800 2395 c-8 -2 -49 -9 -90 -15 -413 -67 -777 -376 -923 -785 -46
-131 -61 -227 -61 -395 0 -113 4 -178 18 -240 104 -482 475 -845 961 -941 103
-21 349 -18 455 5 481 104 845 475 941 961 21 103 18 349 -5 455 -100 466
-454 826 -916 931 -78 18 -338 35 -380 24z m187 -430 c16 -19 23 -39 23 -70 0
-44 1 -44 43 -55 54 -15 114 -50 152 -90 42 -44 40 -102 -4 -142 -41 -36 -77
-36 -132 2 -24 16 -47 30 -51 30 -5 0 -8 -71 -8 -158 l0 -158 75 -34 c89 -38
151 -95 192 -171 26 -49 28 -63 28 -159 0 -99 -2 -110 -33 -172 -41 -83 -129
-168 -204 -196 -52 -19 -53 -20 -56 -63 -4 -72 -11 -89 -45 -109 -45 -28 -81
-25 -118 8 -26 23 -33 38 -37 80 -4 47 -7 53 -31 58 -98 21 -171 54 -223 102
-22 20 -28 35 -28 67 0 51 20 80 66 95 32 11 41 9 87 -15 29 -15 69 -33 90
-41 l37 -13 0 212 0 212 -72 40 c-131 74 -184 163 -176 298 7 130 80 242 193
293 52 24 53 25 57 76 5 43 11 57 38 81 28 25 38 28 74 24 27 -4 49 -15 63
-32z"/>
<path d="M3783 1580 c-29 -44 -30 -109 -4 -141 11 -13 22 -21 26 -18 3 4 4 49
3 100 l-3 94 -22 -35z"/>
<path d="M4010 945 c0 -85 4 -155 8 -155 13 0 58 52 76 87 9 18 16 56 16 87 0
50 -4 60 -36 96 -61 67 -64 61 -64 -115z"/>
</g>
</svg>
