<?xml version="1.0" standalone="no"?>
<!DOCTYPE svg PUBLIC "-//W3C//DTD SVG 20010904//EN"
 "http://www.w3.org/TR/2001/REC-SVG-20010904/DTD/svg10.dtd">
<svg version="1.0" xmlns="http://www.w3.org/2000/svg"
 width="512.000000pt" height="512.000000pt" viewBox="0 0 512.000000 512.000000"
 preserveAspectRatio="xMidYMid meet">

<g transform="translate(0.000000,512.000000) scale(0.100000,-0.100000)"
fill="#ffffff" stroke="none">
<path d="M1555 5106 c-84 -21 -147 -57 -211 -121 -65 -65 -105 -136 -123 -223
-8 -37 -11 -318 -11 -910 l0 -858 100 4 c211 9 454 -35 664 -119 209 -83 400
-211 568 -381 l97 -98 826 0 c808 0 827 0 865 -20 45 -23 80 -80 80 -130 0
-50 -35 -107 -80 -130 -38 -20 -57 -20 -768 -20 l-730 0 38 -88 c64 -149 109
-311 126 -455 l7 -57 644 0 c625 0 645 -1 683 -20 45 -23 80 -80 80 -130 0
-50 -35 -107 -80 -130 -38 -19 -58 -20 -683 -20 l-643 0 -13 -91 c-57 -404
-297 -817 -615 -1057 l-69 -52 1196 0 c842 0 1212 3 1249 11 170 36 311 178
347 347 8 38 11 547 11 1757 l0 1705 -591 0 -591 0 -40 22 c-24 14 -48 38 -59
60 -18 35 -19 68 -19 628 l0 590 -1102 -1 c-847 -1 -1115 -4 -1153 -13z m2775
-1826 c45 -23 80 -80 80 -130 0 -50 -35 -107 -80 -130 -39 -20 -56 -20 -1171
-20 l-1131 0 -40 22 c-101 57 -102 194 -2 254 l39 24 1133 0 c1116 0 1133 0
1172 -20z"/>
<path d="M4110 4575 l0 -455 457 0 458 0 -455 455 c-250 250 -456 455 -457
455 -2 0 -3 -205 -3 -455z"/>
<path d="M1220 2694 c-322 -40 -591 -171 -815 -398 -199 -201 -313 -415 -372
-696 -24 -118 -24 -382 0 -500 59 -281 174 -496 372 -696 201 -203 421 -322
705 -381 117 -24 380 -24 502 0 270 54 494 174 694 372 202 199 322 421 381
705 24 118 24 382 0 500 -39 185 -110 356 -212 510 -63 95 -258 291 -351 352
-161 107 -335 180 -506 213 -81 16 -328 28 -398 19z m210 -514 c48 -25 80 -81
80 -142 0 -43 1 -43 50 -61 60 -21 143 -99 170 -160 42 -95 38 -176 -11 -232
-80 -91 -218 -55 -253 66 l-13 44 -94 0 -94 0 0 -95 0 -95 130 -5 c153 -7 198
-23 270 -95 80 -80 90 -113 90 -305 0 -149 -2 -170 -22 -213 -30 -65 -112
-142 -173 -164 -49 -18 -50 -18 -50 -61 0 -88 -69 -162 -151 -162 -79 0 -149
76 -149 162 0 43 0 43 -51 62 -62 21 -142 97 -169 159 -42 95 -38 176 11 232
80 91 218 55 253 -66 l13 -44 94 0 94 0 0 95 0 95 -130 5 c-153 7 -198 23
-270 95 -80 80 -90 113 -90 305 0 149 2 170 22 212 31 68 109 142 172 164 l51
19 0 45 c1 59 28 107 76 136 48 29 92 30 144 4z"/>
</g>
</svg>
