<?xml version="1.0" encoding="UTF-8" standalone="no"?>
<svg
   version="1.0"
   width="512.000000pt"
   height="512.000000pt"
   viewBox="0 0 512.000000 512.000000"
   preserveAspectRatio="xMidYMid meet"
   id="svg28"
   sodipodi:docname="person_star.svg"
   inkscape:version="1.2 (dc2aedaf03, 2022-05-15)"
   xmlns:inkscape="http://www.inkscape.org/namespaces/inkscape"
   xmlns:sodipodi="http://sodipodi.sourceforge.net/DTD/sodipodi-0.dtd"
   xmlns="http://www.w3.org/2000/svg"
   xmlns:svg="http://www.w3.org/2000/svg">
  <defs
     id="defs32" />
  <sodipodi:namedview
     id="namedview30"
     pagecolor="#ffffff"
     bordercolor="#000000"
     borderopacity="0.25"
     inkscape:showpageshadow="2"
     inkscape:pageopacity="0.0"
     inkscape:pagecheckerboard="0"
     inkscape:deskcolor="#d1d1d1"
     inkscape:document-units="pt"
     showgrid="false"
     inkscape:zoom="1.2260742"
     inkscape:cx="322.57427"
     inkscape:cy="341.74114"
     inkscape:window-width="1920"
     inkscape:window-height="1017"
     inkscape:window-x="1358"
     inkscape:window-y="-8"
     inkscape:window-maximized="1"
     inkscape:current-layer="svg28" />
  <g
     transform="translate(0.000000,512.000000) scale(0.100000,-0.100000)"
     fill="#000000"
     stroke="none"
     id="g26"
     style="fill:#ffffff">
    <path
       d="M2346 5094 c-367 -73 -674 -320 -822 -663 -183 -422 -89 -915 237 -1242 l76 -76 -71 -28 c-179 -69 -390 -191 -545 -315 -163 -130 -360 -343 -442 -478 -62 -102 -45 -205 44 -276 36 -29 45 -31 115 -31 97 0 116 13 211 138 269 358 621 584 1061 679 92 19 134 22 340 23 210 0 247 -3 344 -23 436 -94 802 -329 1064 -684 53 -73 81 -100 114 -117 155 -74 327 69 278 232 -25 85 -223 326 -376 460 -209 181 -377 283 -671 407 -21 9 -18 14 57 90 227 232 344 538 327 855 -28 513 -396 940 -902 1046 -108 23 -333 24 -439 3z m398 -404 c314 -80 546 -380 546 -705 0 -328 -230 -625 -548 -706 -93 -23 -258 -25 -352 -4 -103 24 -235 95 -317 170 -387 353 -298 962 176 1200 132 66 340 85 495 45z"
       id="path18"
       style="fill:#ffffff" />
    <path
       d="M2482 2295 c-25 -21 -40 -55 -83 -183 -83 -252 -87 -260 -122 -279 -27 -15 -70 -19 -263 -23 -214 -5 -234 -7 -254 -25 -51 -46 -64 -117 -32 -170 10 -17 93 -84 185 -150 91 -66 173 -132 181 -146 26 -44 19 -79 -50 -284 -76 -222 -77 -243 -18 -294 28 -25 43 -31 82 -31 53 0 51 -1 267 154 193 139 176 140 409 -26 169 -122 180 -128 227 -128 40 0 54 5 83 31 59 51 58 72 -18 294 -67 198 -75 235 -55 279 7 14 87 79 182 147 171 124 207 161 207 212 0 37 -22 88 -50 112 -20 18 -40 20 -254 25 -193 4 -236 8 -263 23 -35 19 -39 27 -122 279 -62 185 -79 208 -161 208 -37 0 -55 -6 -78 -25z"
       id="path20"
       style="fill:#ffffff" />
    <path
       d="M772 1595 c-25 -21 -40 -55 -83 -183 -83 -252 -87 -260 -122 -279 -27 -15 -70 -19 -263 -23 -214 -5 -234 -7 -254 -25 -51 -46 -64 -117 -32 -170 10 -17 93 -84 185 -150 91 -66 173 -132 181 -146 26 -44 19 -79 -50 -284 -76 -222 -77 -243 -18 -294 28 -25 43 -31 82 -31 53 0 51 -1 267 154 193 139 176 140 409 -26 169 -122 180 -128 227 -128 40 0 54 5 83 31 59 51 58 72 -18 294 -67 198 -75 235 -55 279 7 14 87 79 182 147 171 124 207 161 207 212 0 37 -22 88 -50 112 -20 18 -40 20 -254 25 -193 4 -236 8 -263 23 -35 19 -39 27 -122 279 -62 185 -79 208 -161 208 -37 0 -55 -6 -78 -25z"
       id="path22"
       style="fill:#ffffff" />
    <path
       d="M4192 1595 c-25 -21 -40 -55 -83 -183 -83 -252 -87 -260 -122 -279 -27 -15 -70 -19 -263 -23 -214 -5 -234 -7 -254 -25 -51 -46 -64 -117 -32 -170 10 -17 93 -84 185 -150 91 -66 173 -132 181 -146 26 -44 19 -79 -50 -284 -76 -222 -77 -243 -18 -294 28 -25 43 -31 82 -31 53 0 51 -1 267 154 193 139 176 140 409 -26 169 -122 180 -128 227 -128 40 0 54 5 83 31 59 51 58 72 -18 294 -67 198 -75 235 -55 279 7 14 87 79 182 147 171 124 207 161 207 212 0 37 -22 88 -50 112 -20 18 -40 20 -254 25 -193 4 -236 8 -263 23 -35 19 -39 27 -122 279 -62 185 -79 208 -161 208 -37 0 -55 -6 -78 -25z"
       id="path24"
       style="fill:#ffffff" />
  </g>
  <ellipse
     style="fill:#ffffff;stroke-width:0.809492"
     id="path371"
     cx="257.06393"
     cy="111.17144"
     rx="82.274788"
     ry="81.357231" />
</svg>
