<?xml version="1.0" standalone="no"?>
<!DOCTYPE svg PUBLIC "-//W3C//DTD SVG 20010904//EN"
 "http://www.w3.org/TR/2001/REC-SVG-20010904/DTD/svg10.dtd">
<svg version="1.0" xmlns="http://www.w3.org/2000/svg"
 width="512.000000pt" height="512.000000pt" viewBox="0 0 512.000000 512.000000"
 preserveAspectRatio="xMidYMid meet">

<g transform="translate(0.000000,512.000000) scale(0.100000,-0.100000)"
fill="#FFFFFF" stroke="none">
<path d="M575 5106 c-37 -17 -70 -52 -84 -89 -6 -16 -11 -89 -11 -163 l0 -134
801 0 800 0 -3 149 c-3 163 -8 178 -72 225 -27 21 -38 21 -714 23 -557 2 -693
0 -717 -11z"/>
<path d="M3065 5095 c-21 -20 -25 -34 -25 -80 l0 -55 560 0 560 0 0 55 c0 46
-4 60 -25 80 l-24 25 -511 0 -511 0 -24 -25z"/>
<path d="M3065 4775 c-16 -15 -25 -36 -25 -55 0 -19 9 -40 25 -55 l24 -25 511
0 511 0 24 25 c16 15 25 36 25 55 0 19 -9 40 -25 55 l-24 25 -511 0 -511 0
-24 -25z"/>
<path d="M452 4508 c-16 -29 -112 -204 -212 -388 -100 -184 -196 -359 -212
-388 l-30 -52 723 2 722 3 199 365 c109 201 217 398 239 438 l40 72 -720 0
-720 0 -29 -52z"/>
<path d="M1838 4115 l-238 -434 0 -1459 0 -1459 23 -21 c28 -27 58 -28 85 -4
13 11 167 416 436 1142 l416 1125 0 340 0 341 -235 429 c-129 237 -238 431
-242 432 -5 2 -115 -193 -245 -432z"/>
<path d="M3030 4467 c-49 -16 -123 -93 -138 -143 -29 -98 -7 -153 115 -285 87
-93 108 -128 99 -164 -3 -12 -41 -54 -85 -94 -44 -39 -101 -99 -127 -134 -90
-119 -175 -336 -154 -392 20 -53 30 -55 354 -55 205 0 312 -4 340 -12 26 -8
59 -31 91 -63 49 -49 53 -57 235 -528 138 -359 190 -484 208 -498 23 -17 43
-19 244 -19 l219 0 25 25 25 25 -3 568 c-4 538 -5 571 -24 637 -54 183 -125
300 -260 431 -126 122 -126 134 11 285 115 128 137 197 91 295 -27 58 -80 106
-135 123 -52 15 -1081 14 -1131 -2z"/>
<path d="M0 3280 l0 -240 720 0 720 0 0 240 0 240 -720 0 -720 0 0 -240z"/>
<path d="M2751 3023 c-32 -28 -313 -769 -305 -806 6 -31 30 -49 86 -67 59 -18
88 -60 88 -127 0 -139 -99 -214 -216 -164 -57 25 -93 18 -117 -21 -8 -13 -74
-177 -146 -366 -93 -243 -130 -350 -125 -365 4 -12 17 -35 30 -50 70 -84 12
-236 -97 -253 -22 -4 -49 -14 -60 -23 -22 -18 -129 -286 -129 -323 0 -31 110
-134 231 -214 156 -104 322 -173 523 -216 83 -18 134 -22 286 -22 203 0 301
15 470 72 l85 29 -3 39 c-7 93 -122 1373 -128 1415 -5 42 -9 47 -44 63 -77 34
-140 131 -140 216 0 85 63 182 140 216 22 10 40 22 40 26 0 5 -79 214 -175
466 -112 291 -183 463 -196 475 -12 9 -34 17 -49 17 -15 0 -37 -8 -49 -17z
m43 -1355 c86 -26 166 -136 166 -228 0 -124 -116 -240 -240 -240 -124 0 -240
116 -240 240 0 63 23 114 75 165 70 71 145 90 239 63z m240 -665 c55 -39 81
-93 81 -168 0 -113 -77 -190 -189 -190 -142 0 -233 118 -197 253 14 51 75 117
123 131 56 17 137 6 182 -26z m-640 -215 c86 -26 166 -136 166 -228 0 -124
-116 -240 -240 -240 -124 0 -240 116 -240 240 0 63 23 114 75 165 70 71 145
90 239 63z"/>
<path d="M3034 3023 c4 -10 86 -226 184 -480 l177 -463 197 0 197 0 -31 75
c-18 43 -40 80 -51 87 -11 6 -55 10 -98 9 -73 -2 -79 0 -112 29 -44 39 -62
102 -46 163 8 30 26 56 65 93 40 37 54 58 54 78 0 41 -137 388 -161 409 -19
15 -44 17 -201 17 -167 0 -180 -1 -174 -17z"/>
<path d="M0 1920 l0 -960 720 0 720 0 0 960 0 960 -720 0 -720 0 0 -960z m789
590 c147 -147 352 -485 396 -655 26 -102 14 -210 -36 -307 -52 -102 -184 -198
-320 -233 -86 -23 -231 -16 -311 14 -210 81 -324 315 -258 532 29 97 76 197
147 317 110 184 273 382 315 382 9 0 39 -22 67 -50z"/>
<path d="M3225 1895 c-16 -15 -25 -36 -25 -55 0 -19 9 -40 25 -55 20 -21 34
-25 85 -25 41 0 60 -4 60 -12 0 -7 34 -386 75 -843 41 -457 75 -836 75 -843 0
-7 11 -24 25 -37 l24 -25 591 0 591 0 24 25 c14 13 25 30 25 37 0 7 34 386 75
843 41 457 75 836 75 843 0 8 19 12 60 12 51 0 65 4 85 25 16 15 25 36 25 55
0 19 -9 40 -25 55 l-24 25 -911 0 -911 0 -24 -25z"/>
<path d="M2 451 c3 -335 4 -351 24 -377 11 -15 33 -37 48 -48 27 -21 39 -21
697 -24 l669 -2 0 400 0 400 -720 0 -721 0 3 -349z"/>
</g>
</svg>
