<?xml version="1.0" standalone="no"?>
<!DOCTYPE svg PUBLIC "-//W3C//DTD SVG 20010904//EN"
 "http://www.w3.org/TR/2001/REC-SVG-20010904/DTD/svg10.dtd">
<svg version="1.0" xmlns="http://www.w3.org/2000/svg"
 width="512.000000pt" height="512.000000pt" viewBox="0 0 512.000000 512.000000"
 preserveAspectRatio="xMidYMid meet">

<g transform="translate(0.000000,512.000000) scale(0.100000,-0.100000)"
fill="#FFFFFF" stroke="none">
<path d="M2346 5104 c-56 -31 -1091 -924 -1113 -962 -29 -47 -29 -96 0 -146
41 -72 59 -76 334 -76 l243 0 0 -1960 0 -1960 540 0 c522 0 542 1 580 20 71
36 80 69 80 285 l0 186 -31 17 c-86 47 -243 158 -316 224 -736 659 -736 1798
0 2456 74 67 235 181 315 224 l32 17 0 246 0 245 240 0 c222 0 244 2 280 20
74 38 100 131 57 203 -26 43 -1093 961 -1129 971 -38 10 -81 6 -112 -10z"/>
<path d="M3620 3304 c-322 -40 -591 -171 -815 -398 -199 -201 -313 -415 -372
-696 -24 -118 -24 -382 0 -500 59 -281 173 -495 372 -696 199 -202 421 -322
705 -381 115 -24 381 -24 500 0 553 110 970 523 1087 1077 25 118 25 382 0
500 -116 550 -533 966 -1078 1075 -74 15 -332 27 -399 19z m210 -314 c62 -32
80 -77 80 -202 l0 -104 73 -36 c95 -47 173 -117 187 -169 29 -107 -70 -208
-179 -184 -17 4 -50 23 -74 42 -53 46 -112 73 -157 73 -76 0 -150 -73 -150
-148 0 -78 75 -152 153 -152 157 0 316 -97 390 -238 69 -132 73 -279 10 -410
-36 -74 -133 -172 -200 -203 l-53 -24 0 -103 c0 -125 -18 -170 -80 -202 -51
-26 -93 -25 -142 2 -62 35 -78 77 -78 200 l0 103 -72 35 c-91 44 -221 166
-233 218 -24 111 77 212 181 183 21 -6 60 -33 95 -66 96 -92 172 -114 249 -75
45 23 80 80 80 130 0 78 -74 150 -154 150 -109 0 -226 50 -311 135 -142 139
-173 336 -84 522 31 65 132 164 197 193 l52 24 0 105 c1 124 15 160 76 197 48
29 92 30 144 4z"/>
<path d="M988 2989 c-23 -12 -46 -35 -58 -59 -20 -39 -20 -56 -20 -1485 l0
-1445 300 0 300 0 0 1505 0 1505 -242 0 c-222 -1 -246 -3 -280 -21z"/>
<path d="M78 1789 c-23 -12 -46 -35 -58 -59 -20 -38 -20 -58 -20 -825 0 -752
1 -787 19 -823 11 -22 35 -46 59 -60 38 -21 50 -22 281 -22 l241 0 0 905 0
905 -242 0 c-222 -1 -246 -3 -280 -21z"/>
</g>
</svg>
