<?xml version="1.0" standalone="no"?>
<!DOCTYPE svg PUBLIC "-//W3C//DTD SVG 20010904//EN"
 "http://www.w3.org/TR/2001/REC-SVG-20010904/DTD/svg10.dtd">
<svg version="1.0" xmlns="http://www.w3.org/2000/svg"
 width="512.000000pt" height="512.000000pt" viewBox="0 0 512.000000 512.000000"
 preserveAspectRatio="xMidYMid meet">

<g transform="translate(0.000000,512.000000) scale(0.100000,-0.100000)"
fill="#FFFFFF" stroke="none">
<path d="M1375 5106 c-41 -18 -83 -69 -90 -109 -3 -18 -4 -838 -3 -1824 l3
-1792 21 -27 c11 -15 33 -37 48 -48 27 -21 38 -21 767 -24 721 -2 740 -2 778
18 21 10 50 36 62 57 l24 38 0 1805 0 1805 -24 38 c-12 21 -40 46 -62 57 -37
19 -61 20 -766 20 -583 -1 -734 -3 -758 -14z"/>
<path d="M3720 4248 c-25 -13 -55 -38 -67 -57 -23 -34 -23 -35 -23 -456 0
-421 0 -422 23 -455 12 -18 35 -43 50 -54 28 -21 39 -21 553 -24 506 -2 525
-2 563 17 21 11 50 37 62 58 24 38 24 39 27 423 2 212 0 404 -3 428 -8 55 -62
117 -113 132 -23 6 -228 10 -532 10 -494 0 -496 0 -540 -22z"/>
<path d="M142 3829 c-49 -14 -118 -88 -132 -141 -26 -95 14 -196 98 -245 46
-27 50 -28 234 -31 l187 -4 4 -1116 c3 -1245 -2 -1160 73 -1302 81 -154 202
-258 370 -317 76 -26 87 -27 326 -31 l246 -4 -18 -41 c-70 -159 -34 -344 91
-470 246 -246 659 -111 719 234 13 75 2 164 -30 237 l-19 42 696 0 c658 0 695
-1 688 -17 -38 -88 -47 -131 -43 -219 3 -79 8 -100 38 -160 85 -173 266 -268
452 -236 265 46 424 322 328 574 -11 29 -20 54 -20 56 0 1 114 2 253 2 281 0
300 4 364 71 41 43 53 77 53 145 0 97 -64 180 -156 203 -30 8 -604 11 -1931
11 -1805 0 -1890 1 -1928 19 -51 23 -101 79 -114 128 -7 26 -11 400 -11 1135
0 774 -3 1113 -11 1150 -33 153 -158 283 -313 324 -60 16 -440 18 -494 3z"/>
<path d="M3410 2869 c-14 -6 -36 -20 -48 -32 -54 -50 -52 -24 -52 -760 l0
-684 23 -33 c12 -18 35 -43 50 -54 28 -21 32 -21 832 -21 796 0 804 0 831 21
15 11 37 33 48 48 21 27 21 36 21 726 0 690 0 699 -21 726 -11 15 -33 37 -48
48 -27 21 -37 21 -819 23 -513 1 -801 -2 -817 -8z"/>
</g>
</svg>
