<?xml version="1.0" standalone="no"?>
<!DOCTYPE svg PUBLIC "-//W3C//DTD SVG 20010904//EN"
 "http://www.w3.org/TR/2001/REC-SVG-20010904/DTD/svg10.dtd">
<svg version="1.0" xmlns="http://www.w3.org/2000/svg"
 width="512.000000pt" height="512.000000pt" viewBox="0 0 512.000000 512.000000"
 preserveAspectRatio="xMidYMid meet">

<g transform="translate(0.000000,512.000000) scale(0.100000,-0.100000)"
fill="#ffffff" stroke="none">
<path d="M78 5099 c-23 -12 -46 -35 -58 -59 -18 -36 -20 -58 -20 -285 l0 -245
1430 0 1430 0 0 305 0 305 -1372 0 c-1347 -1 -1374 -1 -1410 -21z"/>
<path d="M3160 4815 l0 -305 225 0 225 0 0 305 0 305 -225 0 -225 0 0 -305z"/>
<path d="M3910 4815 l0 -305 225 0 225 0 0 305 0 305 -225 0 -225 0 0 -305z"/>
<path d="M4660 4815 l0 -305 230 0 230 0 0 245 c0 227 -2 249 -20 285 -36 70
-71 80 -270 80 l-170 0 0 -305z"/>
<path d="M0 2165 c0 -2031 0 -2046 20 -2085 13 -26 34 -47 60 -60 38 -19 57
-20 735 -20 l695 0 0 2105 0 2105 -755 0 -755 0 0 -2045z m979 1575 c41 -21
81 -85 81 -130 0 -44 -38 -105 -79 -128 -36 -20 -52 -22 -221 -22 -169 0 -185
2 -221 22 -43 24 -79 85 -79 132 0 42 37 100 79 124 33 20 51 22 219 22 162 0
187 -2 221 -20z m0 -600 c41 -21 81 -85 81 -130 0 -44 -38 -105 -79 -128 -36
-20 -52 -22 -221 -22 -169 0 -185 2 -221 22 -43 24 -79 85 -79 132 0 42 37
100 79 124 33 20 51 22 219 22 162 0 187 -2 221 -20z m1 -600 c45 -23 80 -80
80 -130 0 -50 -35 -107 -80 -130 -35 -18 -59 -20 -221 -20 -169 0 -184 1 -221
22 -101 57 -102 194 -2 254 37 23 47 24 222 24 164 0 187 -2 222 -20z"/>
<path d="M1810 2105 l0 -2105 1595 0 c1580 0 1596 0 1635 20 26 13 47 34 60
60 20 39 20 54 20 2085 l0 2045 -1655 0 -1655 0 0 -2105z m1885 1480 c454 -93
809 -431 927 -883 29 -109 31 -129 31 -292 0 -164 -2 -182 -31 -295 -118 -446
-471 -784 -922 -881 -106 -23 -352 -26 -455 -5 -486 96 -850 454 -962 943 -23
102 -23 374 0 476 56 247 164 442 337 613 197 194 436 308 720 343 68 8 276
-3 355 -19z m889 -2698 c100 -57 100 -197 0 -254 l-39 -23 -1084 0 -1083 0
-39 22 c-43 24 -79 85 -79 132 0 42 37 100 79 124 l36 22 1085 0 1085 0 39
-23z"/>
<path d="M3231 3278 c-309 -80 -557 -329 -643 -646 -28 -102 -30 -323 -5 -425
82 -328 328 -580 652 -668 65 -18 107 -22 225 -22 118 0 160 4 225 22 379 103
646 428 672 817 8 126 -28 354 -57 354 -5 0 -184 -100 -397 -221 -282 -161
-399 -223 -429 -226 -52 -7 -106 18 -137 61 -22 31 -22 35 -27 502 l-5 472
-74 -20z"/>
<path d="M3610 2984 l0 -315 23 12 c41 23 511 290 515 294 9 9 -50 73 -122
131 -115 92 -238 152 -375 183 l-41 9 0 -314z"/>
</g>
</svg>
