<?xml version="1.0" standalone="no"?>
<!DOCTYPE svg PUBLIC "-//W3C//DTD SVG 20010904//EN"
 "http://www.w3.org/TR/2001/REC-SVG-20010904/DTD/svg10.dtd">
<svg version="1.0" xmlns="http://www.w3.org/2000/svg"
 width="512.000000pt" height="512.000000pt" viewBox="0 0 512.000000 512.000000"
 preserveAspectRatio="xMidYMid meet">

<g transform="translate(0.000000,512.000000) scale(0.100000,-0.100000)"
fill="#FFFFFF" stroke="none">
<path d="M590 5107 c-109 -31 -196 -100 -243 -194 -43 -84 -49 -147 -44 -424
5 -281 11 -318 73 -444 170 -347 590 -484 944 -308 57 28 97 59 165 128 116
115 163 202 199 367 6 26 7 26 105 30 107 3 132 13 175 72 30 40 29 120 -3
165 -33 46 -75 61 -176 61 l-85 0 0 78 c0 112 -17 210 -45 268 -35 71 -108
142 -185 178 l-65 31 -385 2 c-286 2 -397 -1 -430 -10z"/>
<path d="M345 3416 c-84 -21 -147 -57 -211 -121 -65 -65 -105 -136 -123 -223
-17 -82 -15 -1111 3 -1177 30 -113 107 -221 193 -272 l43 -25 0 -742 c0 -835
-4 -787 76 -833 l39 -23 613 0 c595 0 614 1 652 20 26 13 47 34 60 60 20 38
20 57 20 778 l0 739 50 32 c90 58 155 153 185 268 12 47 15 150 15 590 0 356
-4 550 -11 585 -36 169 -179 311 -347 347 -78 16 -1190 14 -1257 -3z"/>
<path d="M2920 3391 c-19 -10 -45 -36 -57 -57 l-23 -39 0 -689 c0 -683 0 -689
21 -726 12 -21 38 -47 59 -59 37 -21 43 -21 729 -21 660 0 694 1 729 19 22 11
46 35 60 59 l22 40 0 688 0 689 -23 39 c-42 73 -56 76 -364 76 l-273 0 0 -120
c0 -144 -16 -187 -80 -220 -51 -26 -93 -25 -142 2 -64 36 -78 75 -78 218 l0
120 -273 0 c-246 0 -276 -2 -307 -19z"/>
<path d="M2258 1589 c-23 -12 -46 -35 -58 -59 -19 -38 -20 -58 -20 -725 0
-668 1 -687 20 -725 13 -26 34 -47 60 -60 38 -19 58 -20 580 -20 522 0 542 1
580 20 26 13 47 34 60 60 19 38 20 57 20 725 0 668 -1 687 -20 725 -36 71 -68
80 -295 80 l-195 0 0 -120 c0 -144 -16 -187 -80 -220 -50 -25 -90 -25 -140 0
-64 33 -80 76 -80 220 l0 120 -197 0 c-177 -1 -202 -3 -235 -21z"/>
<path d="M3879 1588 c-20 -11 -46 -38 -58 -58 -21 -37 -21 -44 -21 -725 0
-682 0 -688 21 -725 12 -21 38 -47 59 -59 37 -21 46 -21 579 -21 523 0 543 1
581 20 26 13 47 34 60 60 19 38 20 57 20 725 0 668 -1 687 -20 725 -36 71 -68
80 -295 80 l-195 0 0 -122 c0 -109 -3 -128 -23 -162 -41 -72 -121 -95 -197
-56 -64 33 -80 76 -80 220 l0 120 -197 0 c-183 0 -201 -2 -234 -22z"/>
</g>
</svg>
