<?xml version="1.0" standalone="no"?>
<!DOCTYPE svg PUBLIC "-//W3C//DTD SVG 20010904//EN"
 "http://www.w3.org/TR/2001/REC-SVG-20010904/DTD/svg10.dtd">
<svg version="1.0" xmlns="http://www.w3.org/2000/svg"
 width="512.000000pt" height="512.000000pt" viewBox="0 0 512.000000 512.000000"
 preserveAspectRatio="xMidYMid meet">

<g transform="translate(0.000000,512.000000) scale(0.100000,-0.100000)"
fill="#ffffff" stroke="none">
<path d="M265 4855 l-25 -24 0 -376 0 -375 1760 0 1760 0 0 375 0 376 -25 24
-24 25 -1711 0 -1711 0 -24 -25z m510 -240 c24 -23 25 -31 25 -135 0 -104 -1
-112 -25 -135 -23 -24 -31 -25 -135 -25 -104 0 -112 1 -135 25 -24 23 -25 31
-25 135 0 104 1 112 25 135 23 24 31 25 135 25 104 0 112 -1 135 -25z m640 0
c24 -23 25 -31 25 -135 0 -104 -1 -112 -25 -135 -23 -24 -31 -25 -135 -25
-104 0 -112 1 -135 25 -24 23 -25 31 -25 135 0 104 1 112 25 135 23 24 31 25
135 25 104 0 112 -1 135 -25z m640 0 c24 -23 25 -31 25 -135 0 -104 -1 -112
-25 -135 -23 -24 -31 -25 -135 -25 -104 0 -112 1 -135 25 -24 23 -25 31 -25
135 0 104 1 112 25 135 23 24 31 25 135 25 104 0 112 -1 135 -25z"/>
<path d="M240 2665 l0 -1256 25 -24 24 -25 1175 0 1176 0 4 22 c3 13 9 56 15
96 22 146 95 330 184 463 130 195 341 369 542 445 l76 29 -7 40 c-4 22 -10 59
-13 82 -6 40 -13 47 -193 191 -180 143 -189 149 -243 156 -108 12 -193 71
-246 168 -31 58 -34 70 -33 148 0 100 24 160 89 225 64 65 125 89 225 89 74 1
92 -3 137 -27 29 -15 69 -43 89 -63 34 -35 84 -124 84 -151 0 -14 381 -323
399 -323 8 0 11 131 11 485 l0 485 -1760 0 -1760 0 0 -1255z m2400 -25 l0
-1120 -1120 0 -1120 0 0 1120 0 1120 1120 0 1120 0 0 -1120z"/>
<path d="M560 3440 l0 -160 160 0 160 0 0 160 0 160 -160 0 -160 0 0 -160z"/>
<path d="M1040 3440 l0 -160 400 0 400 0 0 160 0 160 -400 0 -400 0 0 -160z"/>
<path d="M2000 3440 l0 -160 240 0 240 0 0 160 0 160 -240 0 -240 0 0 -160z"/>
<path d="M560 2400 l0 -720 160 0 160 0 0 720 0 720 -160 0 -160 0 0 -720z"/>
<path d="M1040 2400 l0 -720 160 0 160 0 0 720 0 720 -160 0 -160 0 0 -720z"/>
<path d="M1520 2400 l0 -720 160 0 160 0 0 720 0 720 -160 0 -160 0 0 -720z"/>
<path d="M2000 2400 l0 -720 240 0 240 0 0 720 0 720 -240 0 -240 0 0 -720z"/>
<path d="M4466 3830 c-63 -16 -153 -70 -197 -117 -22 -24 -55 -74 -72 -111
-29 -61 -32 -76 -32 -162 0 -83 4 -103 28 -155 15 -33 35 -67 44 -77 14 -16
11 -24 -52 -100 -37 -46 -111 -136 -163 -200 l-95 -117 -62 6 c-48 4 -71 1
-106 -14 l-45 -20 -255 203 -254 204 -7 47 c-13 88 -70 138 -158 138 -97 0
-155 -58 -155 -155 0 -99 57 -155 159 -155 l63 -1 251 -199 251 -200 -6 -52
c-9 -81 12 -139 71 -198 103 -103 244 -100 339 5 66 74 83 152 51 241 l-17 46
163 199 163 199 71 -23 c185 -63 383 24 474 206 35 72 37 81 37 172 0 91 -2
100 -37 172 -68 136 -188 217 -336 224 -42 2 -94 -1 -116 -6z"/>
<path d="M3490 2256 c-249 -87 -459 -276 -580 -521 -145 -293 -144 -628 2
-919 53 -107 88 -156 176 -248 324 -339 805 -423 1222 -214 102 51 154 89 243
175 96 93 162 181 215 286 196 393 127 855 -175 1176 -110 116 -257 214 -398
263 l-68 24 -41 -32 c-79 -60 -140 -80 -246 -81 -83 0 -103 4 -153 27 -32 15
-75 41 -96 57 l-37 29 -64 -22z m540 -199 c209 -57 368 -171 480 -344 89 -136
125 -259 125 -433 0 -225 -76 -411 -230 -565 -154 -154 -340 -230 -565 -230
-174 0 -297 36 -433 125 -217 141 -347 365 -364 626 -26 400 254 753 662 833
67 13 257 6 325 -12z"/>
<path d="M3760 1760 c0 -67 -3 -80 -16 -80 -77 0 -189 -88 -212 -166 -28 -94
-8 -169 63 -239 63 -64 100 -75 244 -75 105 0 113 -1 136 -25 16 -15 25 -36
25 -55 0 -19 -9 -40 -25 -55 -23 -24 -31 -25 -135 -25 -104 0 -112 1 -135 25
-14 13 -25 31 -25 40 0 12 -15 15 -80 15 -67 0 -80 -3 -80 -16 0 -100 124
-224 224 -224 13 0 16 -13 16 -80 l0 -80 80 0 80 0 0 80 c0 67 3 80 16 80 77
0 189 88 212 166 28 94 8 169 -63 239 -63 64 -100 75 -244 75 -105 0 -113 1
-136 25 -16 15 -25 36 -25 55 0 19 9 40 25 55 23 24 31 25 135 25 104 0 112
-1 135 -25 14 -13 25 -31 25 -40 0 -12 15 -15 80 -15 67 0 80 3 80 16 0 76
-80 182 -157 208 -26 9 -55 16 -65 16 -16 0 -18 9 -18 80 l0 80 -80 0 -80 0 0
-80z"/>
</g>
</svg>
