<?xml version="1.0" standalone="no"?>
<!DOCTYPE svg PUBLIC "-//W3C//DTD SVG 20010904//EN"
 "http://www.w3.org/TR/2001/REC-SVG-20010904/DTD/svg10.dtd">
<svg version="1.0" xmlns="http://www.w3.org/2000/svg"
 width="512.000000pt" height="512.000000pt" viewBox="0 0 512.000000 512.000000"
 preserveAspectRatio="xMidYMid meet">

<g transform="translate(0.000000,512.000000) scale(0.100000,-0.100000)"
fill="#FFFFFF" stroke="none">
<path d="M1888 5099 c-66 -35 -78 -73 -78 -257 l0 -159 -109 -45 -108 -44
-115 112 c-131 128 -166 147 -240 125 -37 -11 -104 -74 -490 -459 -385 -386
-448 -453 -459 -489 -22 -75 -3 -110 126 -242 109 -111 113 -117 100 -141 -7
-14 -27 -62 -45 -107 l-33 -83 -159 0 c-186 0 -223 -11 -258 -80 -19 -38 -20
-58 -20 -670 0 -612 1 -632 20 -670 35 -69 72 -80 258 -80 l159 0 33 -83 c18
-45 38 -93 45 -107 13 -24 9 -30 -100 -141 -129 -132 -148 -167 -126 -241 11
-37 74 -104 459 -490 386 -385 453 -448 490 -459 74 -22 109 -3 240 125 l115
112 108 -44 109 -45 0 -159 c0 -186 11 -223 80 -258 38 -19 58 -20 670 -20
612 0 632 1 670 20 69 35 80 72 80 258 l0 159 83 33 c45 18 93 38 107 45 24
13 30 9 141 -100 132 -129 167 -148 242 -126 36 11 103 74 489 459 385 386
448 453 459 490 22 74 3 109 -125 240 l-112 115 44 108 45 109 159 0 c186 0
223 11 258 80 19 38 20 58 20 670 0 612 -1 632 -20 670 -35 69 -72 80 -258 80
l-159 0 -45 109 -44 108 112 115 c128 131 147 166 125 240 -11 37 -74 104
-459 490 -386 385 -453 448 -489 459 -75 22 -110 3 -242 -126 -111 -109 -117
-113 -141 -100 -14 7 -62 27 -107 45 l-83 33 0 159 c0 186 -11 223 -80 258
-38 19 -57 20 -672 20 -610 -1 -634 -2 -670 -21z m932 -1214 c168 -34 349
-110 500 -210 96 -64 291 -259 355 -355 102 -154 173 -325 212 -510 24 -118
24 -382 0 -500 -59 -284 -179 -506 -381 -705 -201 -199 -415 -313 -696 -372
-118 -24 -382 -24 -500 0 -283 59 -502 178 -705 381 -198 199 -313 415 -372
696 -24 118 -24 382 0 500 59 281 174 496 372 696 225 227 493 358 815 398 67
8 326 -4 400 -19z"/>
<path d="M2443 3596 c-219 -53 -383 -261 -383 -486 0 -270 230 -500 500 -500
270 0 500 230 500 500 0 274 -233 503 -508 499 -31 0 -80 -6 -109 -13z"/>
<path d="M1887 2501 c-77 -82 -140 -201 -162 -306 -9 -43 -15 -127 -15 -218 0
-174 12 -212 80 -247 38 -20 57 -20 770 -20 713 0 732 0 770 20 68 35 80 73
80 247 0 91 -6 175 -15 218 -22 105 -85 224 -162 306 -36 38 -69 69 -73 69 -4
0 -27 -18 -51 -41 -308 -288 -794 -288 -1097 0 -24 23 -47 41 -51 41 -5 0 -38
-31 -74 -69z"/>
</g>
</svg>
