<?xml version="1.0" standalone="no"?>
<!DOCTYPE svg PUBLIC "-//W3C//DTD SVG 20010904//EN"
 "http://www.w3.org/TR/2001/REC-SVG-20010904/DTD/svg10.dtd">
<svg version="1.0" xmlns="http://www.w3.org/2000/svg"
 width="512.000000pt" height="512.000000pt" viewBox="0 0 512.000000 512.000000"
 preserveAspectRatio="xMidYMid meet">

<g transform="translate(0.000000,512.000000) scale(0.100000,-0.100000)"
fill="#ffffff" stroke="none">
<path d="M2075 5110 c-84 -9 -111 -17 -195 -60 -238 -120 -427 -323 -502 -540
-21 -59 -23 -83 -23 -260 0 -112 6 -230 13 -278 13 -82 13 -83 -11 -112 -15
-18 -28 -48 -32 -77 -12 -88 37 -312 80 -369 13 -17 26 -48 30 -70 13 -78 58
-211 100 -299 65 -134 139 -239 240 -341 333 -337 702 -331 1045 16 159 160
303 420 336 607 3 21 19 58 34 83 40 63 70 178 77 293 5 81 3 104 -12 137 -17
39 -17 43 0 118 10 44 20 137 22 218 10 266 -51 442 -205 592 -62 61 -165 131
-239 163 -153 67 -403 144 -562 173 -89 17 -89 17 -196 6z m300 -189 c168 -43
385 -123 465 -171 215 -127 311 -335 283 -612 -7 -62 -23 -156 -37 -208 -14
-52 -26 -103 -26 -113 0 -11 14 -32 30 -47 31 -28 31 -29 20 -92 -16 -102 -37
-169 -61 -194 -13 -14 -32 -63 -50 -134 -53 -209 -168 -403 -326 -550 -176
-165 -354 -224 -512 -170 -264 89 -526 441 -576 773 -4 28 -18 61 -35 82 -27
34 -52 112 -65 207 -7 45 -6 47 24 62 42 22 47 51 27 168 -69 413 -35 596 145
783 113 117 269 222 366 244 70 16 202 5 328 -28z"/>
<path d="M2846 2624 c-80 -156 -206 -323 -311 -412 -118 -101 -258 -136 -377
-94 -152 54 -298 214 -428 470 l-52 103 -24 -32 c-73 -99 -275 -199 -737 -364
-93 -33 -206 -105 -263 -166 -171 -188 -316 -732 -364 -1372 -14 -192 7 -306
66 -358 43 -37 341 -141 569 -198 573 -143 1229 -213 1705 -182 205 13 382 32
392 40 4 3 -23 40 -59 81 -291 332 -388 778 -258 1188 120 381 422 685 801
806 78 25 232 56 283 56 l26 0 -25 21 c-37 30 -248 131 -380 182 -63 24 -158
61 -212 81 -142 55 -245 121 -290 188 l-24 35 -38 -73z"/>
<path d="M3750 1998 c-345 -26 -654 -237 -810 -553 -59 -119 -86 -215 -100
-348 -31 -302 85 -607 311 -823 303 -288 770 -354 1140 -162 431 223 642 717
503 1178 -62 204 -189 387 -354 510 -206 153 -433 218 -690 198z m757 -561
c50 -50 73 -81 73 -97 0 -18 -98 -122 -397 -423 -354 -355 -432 -427 -460
-427 -12 0 -514 504 -523 525 -11 29 9 61 78 128 43 40 68 57 87 57 22 0 60
-34 195 -172 l169 -173 328 328 c248 247 335 327 353 327 16 0 47 -23 97 -73z"/>
</g>
</svg>
