<?xml version="1.0" encoding="UTF-8" standalone="no"?>
<svg
   version="1.0"
   width="512.000000pt"
   height="512.000000pt"
   viewBox="0 0 512.000000 512.000000"
   preserveAspectRatio="xMidYMid meet"
   id="svg3465"
   sodipodi:docname="categories.svg"
   inkscape:version="1.2 (dc2aedaf03, 2022-05-15)"
   xmlns:inkscape="http://www.inkscape.org/namespaces/inkscape"
   xmlns:sodipodi="http://sodipodi.sourceforge.net/DTD/sodipodi-0.dtd"
   xmlns="http://www.w3.org/2000/svg"
   xmlns:svg="http://www.w3.org/2000/svg">
  <defs
     id="defs3469" />
  <sodipodi:namedview
     id="namedview3467"
     pagecolor="#ffffff"
     bordercolor="#000000"
     borderopacity="0.25"
     inkscape:showpageshadow="2"
     inkscape:pageopacity="0.0"
     inkscape:pagecheckerboard="0"
     inkscape:deskcolor="#d1d1d1"
     inkscape:document-units="pt"
     showgrid="false"
     inkscape:zoom="0.61303711"
     inkscape:cx="229.18678"
     inkscape:cy="331.13819"
     inkscape:window-width="1920"
     inkscape:window-height="1017"
     inkscape:window-x="1358"
     inkscape:window-y="-8"
     inkscape:window-maximized="1"
     inkscape:current-layer="g3463" />
  <g
     transform="translate(0.000000,512.000000) scale(0.100000,-0.100000)"
     fill="#FFFFFF"
     stroke="none"
     id="g3463"
     style="fill:#000000">
    <path
       d="m 4620.3826,5021.8806 c -92.5477,-38.4416 -184.3666,-149.3731 -223.7176,-271.288 l -20.4042,-62.605 -147.9305,-3.2949 c -162.5049,-3.2949 -166.8772,-5.4916 -203.3133,-79.0799 -15.3032,-29.655 -15.3032,-40.6382 -17.4893,-941.2704 l -1.4575,-910.5172 h -116.5954 -116.5955 v -175.7331 -175.7332 h 116.5955 116.5954 l 1.4575,-910.5172 c 2.1861,-900.63212 2.1861,-911.61547 17.4893,-941.27042 36.4361,-73.58829 40.8084,-75.78494 203.3133,-79.07997 l 147.9305,-3.29491 20.4042,-62.60491 c 24.7766,-77.98162 96.1913,-187.81481 147.2018,-226.25644 141.372,-107.636527 304.6057,-68.09657 411.7277,102.14488 135.5423,214.17477 131.1699,539.28091 -8.7446,740.27577 -111.4944,160.3564 -265.2547,194.4047 -402.9831,88.9648 -51.0105,-38.4415 -122.4252,-148.27487 -147.2018,-226.25626 l -20.4042,-63.7034 h -68.4998 -68.4998 v 790.79896 790.7991 h 68.4998 68.4998 l 20.4042,-62.6049 c 24.7766,-79.0799 96.1913,-188.9131 147.2018,-227.3546 142.1007,-108.735 304.6057,-68.0967 413.1852,104.3414 128.9837,204.2899 128.9837,518.4127 0,722.7025 -108.5795,172.4381 -271.0845,213.0764 -413.1852,104.3415 -51.0105,-38.4417 -122.4252,-148.2748 -147.2018,-226.2565 l -20.4042,-63.7031 h -68.4998 -68.4998 v 790.7988 790.7992 h 68.4998 68.4998 l 20.4042,-62.6049 c 24.7766,-79.08 96.1913,-188.9133 147.2018,-227.3548 20.4042,-15.3765 56.1116,-36.2449 79.4307,-45.0315 195.2974,-76.8834 397.882,131.7997 427.0308,440.4311 34.9787,362.4495 -196.7548,675.4741 -429.9457,581.0175 z"
       id="path3455"
       style="fill:#ffffff;stroke-width:0.894639" />
    <path
       d="M 1060.1031,4177.6706 C 645.34595,3974.062 284.50712,3795.7072 259.62168,3781.5019 l -48.38834,-25.2537 826.74956,-418.2658 825.367,-419.8439 821.2193,416.6872 c 452.0854,228.8624 817.0719,421.4225 811.5417,427.7359 -5.53,6.3135 -358.0737,181.5115 -783.8911,391.4336 -518.4466,255.6943 -794.9515,385.1201 -836.4272,388.2768 -56.6835,6.3134 -131.3399,-26.8323 -815.6895,-364.6014 z"
       id="path3457"
       style="fill:#ffffff;stroke-width:1.4772" />
    <path
       d="m 92.336253,2504.6077 c 0,-1111.1661 -1.382534,-1096.961 70.508727,-1169.5655 26.26797,-28.4104 485.26601,-266.743 1516.62912,-789.18048 l 71.8912,-37.88068 -2.7649,1098.53936 -4.1477,1096.961 -822.60196,418.2656 c -452.08538,228.8624 -823.98439,416.6874 -825.366914,416.6874 -2.765059,0 -4.147573,-465.6165 -4.147573,-1033.8267 z"
       id="path3459"
       style="fill:#ffffff;stroke-width:1.4772" />
    <path
       d="M 2799.3188,3117.0119 1972.5692,2698.7462 V 1603.3638 509.55939 l 59.4486,28.41048 c 521.2116,255.69454 1504.1864,771.81863 1534.602,803.38573 20.7378,22.0972 44.2407,66.2911 52.5359,97.8584 8.2951,36.3025 12.4426,413.5306 9.6777,1076.4423 l -4.1476,1021.1997 z"
       id="path3461"
       style="fill:#ffffff;stroke-width:1.4772" />
  </g>
</svg>
