<?xml version="1.0" encoding="UTF-8" standalone="no"?>
<svg
   version="1.0"
   width="512.000000pt"
   height="512.000000pt"
   viewBox="0 0 512.000000 512.000000"
   preserveAspectRatio="xMidYMid meet"
   id="svg319"
   sodipodi:docname="list_cross.svg"
   inkscape:version="1.2 (dc2aedaf03, 2022-05-15)"
   xmlns:inkscape="http://www.inkscape.org/namespaces/inkscape"
   xmlns:sodipodi="http://sodipodi.sourceforge.net/DTD/sodipodi-0.dtd"
   xmlns="http://www.w3.org/2000/svg"
   xmlns:svg="http://www.w3.org/2000/svg">
  <defs
     id="defs323" />
  <sodipodi:namedview
     id="namedview321"
     pagecolor="#ffffff"
     bordercolor="#000000"
     borderopacity="0.25"
     inkscape:showpageshadow="2"
     inkscape:pageopacity="0.0"
     inkscape:pagecheckerboard="0"
     inkscape:deskcolor="#d1d1d1"
     inkscape:document-units="pt"
     showgrid="false"
     inkscape:zoom="0.86696539"
     inkscape:cx="338.53716"
     inkscape:cy="417.54838"
     inkscape:window-width="1920"
     inkscape:window-height="1017"
     inkscape:window-x="-8"
     inkscape:window-y="-8"
     inkscape:window-maximized="1"
     inkscape:current-layer="g317" />
  <g
     transform="matrix(0.14896716,0,0,-0.11603575,-125.35592,553.05152)"
     fill="#ffffff"
     stroke="none"
     id="g317"
     style="fill:#000000">
    <path
       id="path309"
       style="fill:#ffffff;stroke-width:1.07851"
       d="M 841.50037 4766.2166 L 841.50037 2559.9958 L 841.50037 353.78759 L 2560.0032 353.78759 L 4278.4962 353.78759 L 4278.4962 2559.9958 L 4278.4962 4766.2166 L 2560.0032 4766.2166 L 841.50037 4766.2166 z M 2450.1059 4407.8823 L 4047.0884 4407.8823 L 4047.0884 3993.5602 L 2450.1059 3993.5602 L 2450.1059 4407.8823 z M 1079.8309 4398.4521 L 2214.1354 4398.4521 L 2214.1354 3259.5335 L 1079.8309 3259.5335 L 1079.8309 4398.4521 z M 2450.1059 3841.6674 L 4047.0884 3841.6674 L 4047.0884 3427.3453 L 2450.1059 3427.3453 L 2450.1059 3841.6674 z M 2447.1952 3268.4083 L 4044.1876 3268.4083 L 4044.1876 2854.0736 L 2447.1952 2854.0736 L 2447.1952 3268.4083 z M 1089.9002 3044.3562 L 2214.1354 3044.3562 L 2214.1354 1920.5234 L 1089.9002 1920.5234 L 1089.9002 3044.3562 z M 2447.1952 2702.1933 L 4044.1876 2702.1933 L 4044.1876 2287.8713 L 2447.1952 2287.8713 L 2447.1952 2702.1933 z M 2447.1952 2148.9181 L 4044.1876 2148.9181 L 4044.1876 1734.5834 L 2447.1952 1734.5834 L 2447.1952 2148.9181 z M 1089.9002 1705.3461 L 2214.1354 1705.3461 L 2214.1354 592.26895 L 1089.9002 592.26895 L 1089.9002 1705.3461 z M 2447.1952 1582.7032 L 4044.1876 1582.7032 L 4044.1876 1168.3811 L 2447.1952 1168.3811 L 2447.1952 1582.7032 z M 2444.2944 1009.4314 L 4041.2867 1009.4314 L 4041.2867 595.10936 L 2444.2944 595.10936 L 2444.2944 1009.4314 z " />
    <path
       d="m 1258.254,4233.3868 -101.2049,-115.2031 130.3985,-145.6342 130.3986,-147.8077 v 0 l -120.6674,-136.9395 c -66.1724,-73.904 -120.6674,-145.6342 -120.6674,-158.676 0,-10.8683 44.7637,-69.5566 97.3124,-128.245 l 97.3126,-106.5084 132.3447,145.634 132.3448,145.6341 134.2911,-152.155 136.2373,-152.1549 107.0438,119.5502 107.0435,119.5504 -136.2373,152.1549 -134.2911,152.1552 130.3987,147.8077 130.3985,147.8078 -107.0436,117.3768 -107.0437,117.3765 -132.3447,-145.634 -132.3449,-145.6341 -124.5598,141.2868 c -68.1187,78.2512 -130.3987,141.2869 -136.2373,141.2869 -5.8389,0 -56.4412,-52.1673 -112.8824,-113.0294 z"
       id="path311"
       style="fill:#ffffff;stroke-width:2.05681"
       sodipodi:nodetypes="ccccccscccccccccccccccccsc" />
    <path
       d="m 1268.3233,2897.2703 -101.2049,-115.2031 130.3985,-145.6342 130.3986,-147.8077 v 0 l -120.6674,-136.9395 c -66.1724,-73.904 -120.6674,-145.6342 -120.6674,-158.676 0,-10.8683 44.7637,-69.5566 97.3124,-128.245 l 97.3126,-106.5084 132.3447,145.634 132.3448,145.6341 134.2911,-152.155 136.2373,-152.1549 107.0438,119.5502 107.0435,119.5504 -136.2373,152.1549 -134.2911,152.1552 130.3987,147.8077 130.3985,147.8078 -107.0436,117.3768 -107.0437,117.3765 -132.3447,-145.634 -132.3449,-145.6341 -124.5598,141.2868 c -68.1187,78.2512 -130.3987,141.2869 -136.2373,141.2869 -5.8389,0 -56.4412,-52.1673 -112.8824,-113.0294 z"
       id="path311-6"
       style="fill:#ffffff;stroke-width:2.05681"
       sodipodi:nodetypes="ccccccscccccccccccccccccsc" />
    <path
       d="m 1268.3233,1570.6163 -101.2049,-115.2031 130.3985,-145.6342 130.3986,-147.8077 v 0 l -120.6674,-136.9395 c -66.1724,-73.9038 -120.6674,-145.63397 -120.6674,-158.67577 0,-10.8683 44.7637,-69.5566 97.3124,-128.245 l 97.3126,-106.5084 132.3447,145.634 132.3448,145.6341 134.2911,-152.155 136.2373,-152.1549 107.0438,119.5502 107.0435,119.5504 -136.2373,152.15467 -134.2911,152.1552 130.3987,147.8077 130.3985,147.8078 -107.0436,117.3768 -107.0437,117.3765 -132.3447,-145.634 -132.3449,-145.6341 -124.5598,141.2868 c -68.1187,78.2512 -130.3987,141.2869 -136.2373,141.2869 -5.8389,0 -56.4412,-52.1673 -112.8824,-113.0294 z"
       id="path311-6-4"
       style="fill:#ffffff;stroke-width:2.05681"
       sodipodi:nodetypes="ccccccscccccccccccccccccsc" />
  </g>
</svg>
