<?xml version="1.0" standalone="no"?>
<!DOCTYPE svg PUBLIC "-//W3C//DTD SVG 20010904//EN"
 "http://www.w3.org/TR/2001/REC-SVG-20010904/DTD/svg10.dtd">
<svg version="1.0" xmlns="http://www.w3.org/2000/svg"
 width="512.000000pt" height="512.000000pt" viewBox="0 0 512.000000 512.000000"
 preserveAspectRatio="xMidYMid meet">

<g transform="translate(0.000000,512.000000) scale(0.100000,-0.100000)"
fill="#FFFFFF" stroke="none">
<path d="M240 2880 l0 -2000 560 0 560 0 0 375 0 376 25 24 24 25 696 0 695 0
0 240 0 240 -720 0 -720 0 0 80 0 80 720 0 720 0 0 80 0 80 -720 0 -720 0 0
80 0 80 720 0 720 0 0 135 c0 131 1 137 25 160 24 25 24 25 240 25 l215 0 0
960 0 960 -1520 0 -1520 0 0 -2000z m1042 1923 c26 -26 48 -52 48 -58 0 -6
-29 -40 -65 -75 l-65 -64 0 -319 0 -318 -25 -24 -24 -25 -351 0 -351 0 -24 25
-25 24 0 351 0 351 25 24 24 25 318 0 319 0 64 65 c35 36 69 65 74 65 6 0 32
-21 58 -47z m1838 -323 l0 -80 -880 0 -880 0 0 80 0 80 880 0 880 0 0 -80z m0
-320 l0 -80 -880 0 -880 0 0 80 0 80 880 0 880 0 0 -80z m-1945 -425 l25 -24
0 -351 0 -351 -25 -24 -24 -25 -351 0 -351 0 -24 25 -25 24 0 351 0 351 25 24
24 25 351 0 351 0 24 -25z m1945 -215 l0 -80 -880 0 -880 0 0 80 0 80 880 0
880 0 0 -80z m0 -320 l0 -80 -880 0 -880 0 0 80 0 80 880 0 880 0 0 -80z
m-1842 -316 c29 -25 52 -51 52 -58 0 -6 -29 -41 -65 -76 l-65 -64 0 -319 0
-318 -25 -24 -24 -25 -351 0 -351 0 -24 25 -25 24 0 351 0 351 25 24 24 25
318 0 319 0 64 65 c35 36 67 65 70 65 3 0 29 -21 58 -46z m-103 -1069 l25 -24
0 -351 0 -351 -25 -24 -24 -25 -351 0 -351 0 -24 25 -25 24 0 351 0 351 25 24
24 25 351 0 351 0 24 -25z"/>
<path d="M560 4378 l0 -183 180 180 c99 99 180 181 180 182 0 2 -81 3 -180 3
l-180 0 0 -182z"/>
<path d="M855 4260 l-180 -180 183 0 182 0 0 180 c0 99 -1 180 -3 180 -1 0
-83 -81 -182 -180z"/>
<path d="M560 3360 l0 -240 240 0 240 0 0 240 0 240 -240 0 -240 0 0 -240z"/>
<path d="M560 2458 l0 -183 180 180 c99 99 180 181 180 182 0 2 -81 3 -180 3
l-180 0 0 -182z"/>
<path d="M855 2340 l-180 -180 183 0 182 0 0 180 c0 99 -1 180 -3 180 -1 0
-83 -81 -182 -180z"/>
<path d="M560 1440 l0 -240 240 0 240 0 0 240 0 240 -240 0 -240 0 0 -240z"/>
<path d="M2960 2240 l0 -560 720 0 720 0 0 560 0 560 -240 0 -240 0 0 -215 c0
-286 19 -265 -240 -265 -259 0 -240 -21 -240 265 l0 215 -240 0 -240 0 0 -560z
m1280 -320 l0 -80 -160 0 -160 0 0 80 0 80 160 0 160 0 0 -80z"/>
<path d="M3600 2640 l0 -160 80 0 80 0 0 160 0 160 -80 0 -80 0 0 -160z"/>
<path d="M1520 880 l0 -640 800 0 800 0 0 640 0 640 -240 0 -240 0 0 -215 c0
-216 0 -216 -25 -240 l-24 -25 -271 0 -271 0 -24 25 c-25 24 -25 24 -25 240
l0 215 -240 0 -240 0 0 -640z m1440 -80 l0 -80 -160 0 -160 0 0 80 0 80 160 0
160 0 0 -80z m0 -320 l0 -80 -160 0 -160 0 0 80 0 80 160 0 160 0 0 -80z"/>
<path d="M2160 1360 l0 -160 160 0 160 0 0 160 0 160 -160 0 -160 0 0 -160z"/>
<path d="M3280 880 l0 -640 800 0 800 0 0 640 0 640 -240 0 -240 0 0 -215 c0
-216 0 -216 -25 -240 l-24 -25 -271 0 -271 0 -24 25 c-25 24 -25 24 -25 240
l0 215 -240 0 -240 0 0 -640z m1440 -80 l0 -80 -160 0 -160 0 0 80 0 80 160 0
160 0 0 -80z m0 -320 l0 -80 -160 0 -160 0 0 80 0 80 160 0 160 0 0 -80z"/>
<path d="M3920 1360 l0 -160 160 0 160 0 0 160 0 160 -160 0 -160 0 0 -160z"/>
</g>
</svg>
