<?xml version="1.0" standalone="no"?>
<!DOCTYPE svg PUBLIC "-//W3C//DTD SVG 20010904//EN"
 "http://www.w3.org/TR/2001/REC-SVG-20010904/DTD/svg10.dtd">
<svg version="1.0" xmlns="http://www.w3.org/2000/svg"
 width="512.000000pt" height="512.000000pt" viewBox="0 0 512.000000 512.000000"
 preserveAspectRatio="xMidYMid meet">
<g transform="translate(0.000000,512.000000) scale(0.100000,-0.100000)"
fill="#ffffff" stroke="none">
<path d="M870 4929 c-36 -22 -580 -557 -580 -571 0 -5 156 -8 348 -8 l347 0
180 271 c99 149 188 284 198 300 l19 29 -239 0 c-224 0 -240 -1 -273 -21z"/>
<path d="M1377 4655 c-109 -162 -197 -297 -197 -300 0 -3 145 -4 322 -3 l321
3 94 280 c51 154 96 288 99 298 5 16 -10 17 -219 17 l-224 0 -196 -295z"/>
<path d="M2185 4938 c-8 -22 -195 -582 -195 -585 0 -2 180 -3 401 -3 377 0
400 1 395 18 -3 9 -48 143 -99 297 l-94 280 -202 3 c-156 2 -203 0 -206 -10z"/>
<path d="M2764 4933 c3 -10 48 -144 99 -298 l94 -280 322 -3 323 -2 -18 29
c-11 16 -100 151 -199 300 l-180 271 -223 0 c-208 0 -223 -1 -218 -17z"/>
<path d="M3400 4945 c0 -3 88 -138 197 -300 l196 -295 351 0 351 0 -285 286
c-157 157 -297 292 -312 300 -21 11 -77 14 -263 14 -129 0 -235 -2 -235 -5z"/>
<path d="M170 4081 c0 -92 3 -112 19 -132 l19 -24 366 -3 366 -3 0 136 0 135
-385 0 -385 0 0 -109z"/>
<path d="M1100 4055 l0 -135 350 0 350 0 0 135 0 135 -350 0 -350 0 0 -135z"/>
<path d="M1960 4055 l0 -135 430 0 430 0 0 135 0 135 -430 0 -430 0 0 -135z"/>
<path d="M2980 4055 l0 -135 345 0 345 0 0 135 0 135 -345 0 -345 0 0 -135z"/>
<path d="M3840 4055 l0 -135 350 0 c368 0 398 3 414 45 3 9 6 64 6 121 l0 104
-385 0 -385 0 0 -135z"/>
<path d="M420 2555 c0 -1039 2 -1210 15 -1234 18 -36 32 -41 106 -41 l59 0 0
948 c0 1076 -4 1017 78 1102 77 79 82 80 602 80 518 0 521 0 600 -80 84 -83
80 -23 80 -1102 l0 -948 645 0 645 0 53 33 c28 19 64 41 79 50 l27 17 -25 51
c-15 28 -33 91 -42 140 -9 52 -20 89 -27 89 -25 0 -95 61 -121 106 -22 37 -28
63 -32 125 l-5 79 -411 0 -412 0 -52 26 c-58 29 -96 69 -124 131 -17 40 -18
73 -16 570 3 485 4 531 21 564 24 47 71 95 121 122 41 22 42 22 850 25 899 3
875 4 953 -63 59 -50 84 -109 91 -210 l5 -83 82 -26 c46 -14 86 -26 89 -26 3
0 6 171 6 380 l0 380 -1970 0 -1970 0 0 -1205z"/>
<path d="M813 3240 c-55 -22 -53 11 -53 -1015 l0 -945 520 0 520 0 0 945 c0
1032 2 993 -56 1015 -32 13 -901 12 -931 0z"/>
<path d="M2354 3240 c-55 -22 -54 -13 -54 -558 l0 -503 25 -24 24 -25 404 0
404 0 6 108 c26 445 327 770 763 824 l94 11 0 42 c0 23 -5 56 -11 74 -22 63
11 61 -851 60 -431 0 -793 -4 -804 -9z"/>
<path d="M3832 2890 c-228 -60 -428 -261 -487 -489 -19 -73 -33 -271 -19 -270
5 0 20 23 34 51 32 65 98 112 178 127 129 25 221 54 331 106 65 30 129 55 144
55 15 0 78 -25 140 -55 104 -50 189 -77 328 -105 83 -16 142 -58 181 -127 l33
-58 3 65 c17 326 -200 620 -516 701 -100 25 -250 25 -350 -1z"/>
<path d="M3935 2273 c-101 -52 -211 -90 -314 -109 -106 -19 -126 -35 -141
-115 -11 -61 -44 -99 -86 -99 -27 0 -74 -40 -74 -64 0 -44 20 -65 75 -81 68
-20 77 -36 100 -180 17 -105 46 -174 94 -219 14 -13 77 -59 140 -100 234 -156
338 -154 583 13 165 112 188 146 218 321 22 128 38 154 100 164 66 10 90 68
49 120 -14 18 -30 26 -50 26 -40 0 -76 38 -84 86 -10 68 -34 103 -74 112 -193
45 -265 67 -358 112 -58 27 -106 50 -107 50 0 -1 -32 -17 -71 -37z"/>
<path d="M3450 1219 c-30 -16 -59 -34 -65 -40 -15 -15 253 -279 283 -279 16 0
49 24 98 72 41 39 74 76 74 82 0 6 -21 19 -46 30 -25 10 -95 52 -156 92 -61
41 -115 74 -122 74 -6 0 -36 -14 -66 -31z"/>
<path d="M4410 1195 c-41 -30 -109 -71 -150 -92 -41 -21 -77 -39 -79 -41 -12
-7 155 -162 174 -162 13 0 70 50 155 136 130 130 134 136 115 150 -30 24 -113
64 -127 63 -7 0 -47 -25 -88 -54z"/>
<path d="M3208 1022 c-24 -27 -58 -76 -76 -109 -57 -107 -62 -147 -62 -460 l0
-283 308 0 309 0 35 247 35 248 -25 37 c-21 33 -30 38 -64 38 -70 0 -107 26
-264 181 l-151 150 -45 -49z"/>
<path d="M4620 924 c-80 -80 -158 -153 -175 -161 -16 -9 -54 -19 -84 -22 -48
-5 -55 -9 -74 -42 l-21 -37 34 -246 34 -246 308 0 308 0 0 283 c0 310 -5 348
-59 456 -26 51 -102 151 -120 159 -3 1 -71 -64 -151 -144z"/>
<path d="M3923 908 l-82 -83 20 -32 21 -33 128 0 128 0 21 33 20 32 -82 83
c-45 45 -84 82 -87 82 -3 0 -42 -37 -87 -82z"/>
<path d="M3905 568 c-8 -48 -55 -378 -55 -389 0 -5 71 -9 160 -9 130 0 160 3
160 14 0 17 -49 363 -55 394 -5 21 -10 22 -105 22 l-99 0 -6 -32z"/>
</g>
</svg>
