<?xml version="1.0" standalone="no"?>
<!DOCTYPE svg PUBLIC "-//W3C//DTD SVG 20010904//EN"
 "http://www.w3.org/TR/2001/REC-SVG-20010904/DTD/svg10.dtd">
<svg version="1.0" xmlns="http://www.w3.org/2000/svg"
 width="512.000000pt" height="512.000000pt" viewBox="0 0 512.000000 512.000000"
 preserveAspectRatio="xMidYMid meet">

<g transform="translate(0.000000,512.000000) scale(0.100000,-0.100000)"
fill="#FFFFFF" stroke="none">
<path d="M1955 4832 c-115 -82 -259 -183 -319 -225 l-110 -77 368 0 367 0 272
211 c150 116 279 218 287 225 12 12 -35 14 -320 14 l-335 0 -210 -148z"/>
<path d="M2846 4755 l-288 -225 318 0 c292 -1 350 -4 424 -24 23 -6 55 18 285
219 143 125 267 233 275 241 12 12 -39 14 -355 14 l-370 0 -289 -225z"/>
<path d="M3735 4614 c-202 -177 -279 -250 -275 -262 2 -9 5 -412 7 -894 2
-483 7 -878 11 -878 4 0 128 121 275 268 l267 268 0 872 c0 480 -1 872 -2 872
-2 0 -129 -111 -283 -246z"/>
<path d="M1229 4327 c-39 -30 -39 -27 -39 -996 l0 -940 24 -28 24 -28 1002 0
1002 0 24 28 24 28 0 940 c0 969 0 966 -39 996 -23 18 -1999 18 -2022 0z m758
-1278 c38 -14 83 -57 99 -96 10 -22 14 -75 14 -169 0 -123 -2 -140 -22 -176
-14 -24 -41 -51 -68 -66 l-45 -27 -220 0 c-121 0 -232 3 -247 7 -40 12 -89 57
-109 103 -15 32 -19 65 -19 165 0 164 19 208 105 253 25 13 70 16 257 17 137
0 238 -4 255 -11z m1095 -19 c26 -27 30 -36 25 -68 -4 -22 -17 -46 -32 -59
-25 -22 -34 -23 -195 -23 -161 0 -170 1 -195 23 -15 13 -28 37 -32 59 -5 32
-1 41 25 68 l30 30 172 0 172 0 30 -30z m-27 -342 c29 -13 55 -55 55 -87 0
-12 -13 -35 -29 -53 l-29 -33 -132 -4 c-156 -4 -210 3 -238 30 -45 41 -36 115
17 144 34 18 317 21 356 3z"/>
<path d="M1550 2790 l0 -90 185 0 185 0 0 90 0 90 -185 0 -185 0 0 -90z"/>
<path d="M661 2563 l-324 -228 338 -3 c186 -1 338 -1 339 0 1 2 -1 104 -4 227
-3 138 -9 226 -15 228 -6 2 -156 -99 -334 -224z"/>
<path d="M3725 2560 l-230 -230 425 0 c330 -1 433 -4 463 -14 l37 -14 253 220
c138 121 263 231 277 244 l25 24 -510 0 -510 0 -230 -230z"/>
<path d="M4835 2423 c-224 -197 -279 -251 -276 -267 2 -12 7 -416 10 -899 l6
-877 273 273 272 273 0 872 c0 480 -1 872 -2 871 -2 0 -129 -111 -283 -246z"/>
<path d="M54 2140 c-57 -23 -54 28 -54 -998 l0 -944 29 -29 29 -29 997 0 996
0 24 25 25 24 0 951 0 952 -29 29 -29 29 -984 -1 c-541 0 -993 -4 -1004 -9z
m752 -1289 c23 -10 54 -36 70 -57 28 -36 29 -41 32 -172 4 -161 0 -191 -35
-233 -53 -62 -83 -69 -326 -69 -243 0 -262 4 -314 63 -42 48 -53 92 -53 212 0
117 11 162 47 206 53 62 83 69 323 69 189 0 220 -3 256 -19z m1090 -14 c26
-31 31 -66 12 -100 -23 -44 -35 -46 -219 -47 -169 0 -176 1 -196 23 -29 31
-37 64 -23 98 23 53 47 59 233 56 l169 -2 24 -28z m-2 -368 c35 -41 34 -83 -3
-120 l-29 -29 -161 0 c-88 0 -171 4 -185 10 -58 22 -69 110 -19 150 24 18 40
20 198 20 l173 0 26 -31z"/>
<path d="M370 595 l0 -95 180 0 180 0 0 95 0 95 -180 0 -180 0 0 -95z"/>
<path d="M2321 2124 l-31 -26 0 -954 0 -955 25 -24 24 -25 995 0 995 0 28 24
28 24 3 939 c2 693 -1 945 -9 966 -25 60 22 57 -1048 57 l-979 0 -31 -26z
m796 -1286 c25 -16 49 -44 63 -72 20 -41 21 -58 18 -184 -3 -131 -4 -141 -30
-179 -16 -24 -44 -49 -70 -62 -41 -19 -61 -21 -261 -21 -270 0 -305 11 -348
105 -27 58 -27 282 0 341 19 43 62 80 109 94 15 5 129 8 253 7 l226 -2 40 -27z
m1036 21 c54 -25 66 -101 22 -144 -24 -25 -27 -25 -200 -25 l-176 0 -24 26
c-42 45 -26 122 29 144 32 13 321 12 349 -1z m9 -370 c31 -17 50 -71 37 -108
-19 -53 -48 -61 -229 -61 l-162 0 -29 29 c-41 41 -37 102 10 138 21 16 343 18
373 2z"/>
<path d="M2657 684 c-4 -4 -7 -47 -7 -96 l0 -88 185 0 186 0 -3 93 -3 92 -176
3 c-96 1 -178 -1 -182 -4z"/>
</g>
</svg>
