<?xml version="1.0" standalone="no"?>
<!DOCTYPE svg PUBLIC "-//W3C//DTD SVG 20010904//EN"
 "http://www.w3.org/TR/2001/REC-SVG-20010904/DTD/svg10.dtd">
<svg version="1.0" xmlns="http://www.w3.org/2000/svg"
 width="512.000000pt" height="512.000000pt" viewBox="0 0 512.000000 512.000000"
 preserveAspectRatio="xMidYMid meet">

<g transform="translate(0.000000,512.000000) scale(0.100000,-0.100000)"
fill="#FFFFFF" stroke="none">
<path d="M1285 5043 c-10 -43 -20 -84 -22 -90 -4 -10 47 -13 236 -13 133 0
241 2 241 5 0 3 -10 44 -21 90 l-21 85 -197 0 -197 0 -19 -77z"/>
<path d="M4945 4848 c-3 -7 -4 -346 -3 -753 l3 -740 88 -3 87 -3 -2 753 -3
753 -83 3 c-60 2 -84 -1 -87 -10z"/>
<path d="M1100 4755 c-522 -110 -920 -596 -920 -1125 l0 -100 84 0 83 0 13 46
c16 57 66 109 117 123 21 6 104 11 186 11 l147 0 0 25 c0 45 49 278 85 401 45
156 130 369 206 513 33 63 58 115 57 116 -2 1 -28 -4 -58 -10z"/>
<path d="M1328 4693 c-162 -274 -271 -568 -326 -875 l-19 -108 518 0 519 0 -6
33 c-67 374 -172 667 -343 955 l-43 72 -127 0 -127 0 -46 -77z m440 -545 l3
-88 -266 0 -265 0 0 90 0 90 263 -2 262 -3 3 -87z"/>
<path d="M1842 4762 c2 -4 31 -61 65 -127 135 -265 224 -529 272 -814 l18
-106 164 -5 c185 -6 216 -16 261 -88 22 -36 23 -44 26 -329 l3 -293 85 0 85 0
-3 403 -4 402 -27 100 c-32 114 -105 273 -168 366 -55 81 -185 217 -269 280
-88 66 -235 141 -350 177 -107 33 -163 45 -158 34z"/>
<path d="M2827 4763 c-4 -3 -7 -111 -7 -238 l0 -232 44 -94 c99 -214 127 -344
135 -629 l6 -215 350 0 350 0 0 705 0 705 -87 3 -88 3 0 -108 c0 -132 -17
-178 -81 -220 -41 -27 -46 -28 -178 -28 -158 0 -196 12 -239 78 -25 37 -27 50
-30 159 l-4 118 -82 0 c-46 0 -86 -3 -89 -7z m703 -793 l0 -90 -265 0 -265 0
0 90 0 90 265 0 265 0 0 -90z m0 -350 l0 -90 -175 0 -175 0 0 90 0 90 175 0
175 0 0 -90z"/>
<path d="M3180 4680 l0 -90 85 0 85 0 0 90 0 90 -85 0 -85 0 0 -90z"/>
<path d="M3885 4758 c-3 -7 -4 -326 -3 -708 l3 -695 440 0 440 0 0 705 0 705
-87 3 -86 3 -4 -119 c-3 -109 -5 -122 -30 -159 -43 -65 -81 -78 -233 -78 -152
0 -190 13 -233 78 -25 37 -27 50 -30 159 l-4 118 -84 0 c-59 0 -86 -4 -89 -12z
m705 -788 l0 -90 -265 0 -265 0 0 90 0 90 265 0 265 0 0 -90z m0 -350 l0 -90
-175 0 -175 0 0 90 0 90 175 0 175 0 0 -90z"/>
<path d="M4240 4680 l0 -90 85 0 85 0 0 90 0 90 -85 0 -85 0 0 -90z"/>
<path d="M530 3440 l0 -90 970 0 970 0 0 90 0 90 -970 0 -970 0 0 -90z"/>
<path d="M180 3175 l0 -175 85 0 85 0 0 175 0 175 -85 0 -85 0 0 -175z"/>
<path d="M530 2831 c0 -385 7 -458 60 -602 139 -383 504 -639 910 -639 369 0
708 212 870 545 90 184 93 202 97 653 l4 392 -970 0 -971 0 0 -349z m554 144
c92 -44 142 -126 153 -249 l6 -76 -92 0 -91 0 0 50 c0 55 -20 104 -45 114 -75
28 -135 -20 -135 -110 l0 -54 -85 0 -85 0 0 66 c0 89 16 136 64 191 58 66 124
95 206 90 37 -1 82 -11 104 -22z m1063 -5 c97 -49 137 -114 149 -243 l7 -77
-92 0 -91 0 0 50 c0 55 -20 104 -45 114 -9 3 -31 6 -48 6 -58 -1 -87 -40 -87
-119 l0 -51 -85 0 -85 0 0 78 c0 89 19 138 71 191 84 84 200 104 306 51z
m-237 -825 c0 -17 -100 -90 -176 -128 -107 -54 -171 -68 -341 -74 l-153 -6 0
92 0 91 123 0 c182 0 281 29 387 114 l45 35 57 -56 c32 -32 58 -62 58 -68z"/>
<path d="M3000 3090 l0 -90 1060 0 1060 0 0 90 0 90 -1060 0 -1060 0 0 -90z"/>
<path d="M83 2795 c-74 -45 -102 -138 -64 -220 37 -82 89 -105 237 -105 l107
0 -7 31 c-3 17 -6 96 -6 175 l0 144 -112 0 c-103 0 -117 -3 -155 -25z"/>
<path d="M2650 2656 c0 -91 0 -169 0 -173 0 -5 45 -9 100 -11 119 -3 171 14
215 72 55 73 40 188 -33 244 -33 25 -42 27 -159 30 l-123 4 0 -166z"/>
<path d="M3150 2778 c72 -167 -6 -365 -178 -450 -41 -20 -67 -24 -200 -28
l-154 -5 -27 -85 c-73 -225 -238 -453 -416 -575 l-58 -40 114 -5 c120 -6 154
-16 196 -62 36 -38 43 -73 43 -209 0 -71 2 -129 4 -129 2 0 25 10 52 21 52 24
156 30 188 12 13 -7 31 -6 64 3 33 10 115 14 308 14 l263 0 3 553 3 553 28 42
c15 23 45 51 67 62 38 19 57 20 610 20 540 0 573 -1 608 -19 20 -10 45 -28 55
-39 45 -49 46 -69 47 -634 l0 -538 175 0 175 0 0 790 0 790 -994 0 -995 0 19
-42z"/>
<path d="M3537 2294 c-4 -4 -7 -243 -7 -531 l0 -523 530 0 530 0 0 530 0 531
-87 -3 -88 -3 -5 -165 c-5 -176 -9 -191 -60 -234 -50 -41 -95 -48 -314 -44
-225 3 -242 8 -293 75 -27 36 -28 39 -33 202 l-5 166 -80 3 c-45 1 -84 0 -88
-4z"/>
<path d="M3887 2294 c-4 -4 -7 -65 -7 -136 l0 -128 180 0 181 0 -3 133 -3 132
-171 3 c-93 1 -173 -1 -177 -4z"/>
<path d="M710 705 l0 -705 795 0 795 0 0 705 0 705 -180 0 -180 0 0 -335 0
-335 -220 110 -220 110 -220 -110 -220 -110 0 335 0 335 -175 0 -175 0 0 -705z
m1060 -440 l0 -85 -90 0 -90 0 0 85 0 85 90 0 90 0 0 -85z m350 0 l0 -85 -90
0 -90 0 0 85 0 85 90 0 90 0 0 -85z"/>
<path d="M1240 1220 c0 -104 3 -190 8 -190 4 1 63 29 131 65 l125 63 128 -64
c70 -35 130 -64 133 -64 3 0 5 86 5 190 l0 190 -265 0 -265 0 0 -190z"/>
<path d="M350 885 l0 -175 25 0 c36 0 77 23 113 64 73 83 45 212 -58 264 -82
41 -80 46 -80 -153z"/>
<path d="M2574 1041 c-98 -45 -132 -162 -71 -252 29 -44 83 -79 118 -79 l29 0
0 175 c0 197 3 192 -76 156z"/>
<path d="M2827 1053 c-4 -3 -7 -242 -7 -530 l0 -523 530 0 530 0 0 530 0 530
-84 0 -84 0 -4 -157 c-4 -177 -11 -201 -75 -250 l-36 -28 -216 -3 c-119 -2
-230 -1 -248 3 -43 8 -92 50 -114 100 -15 33 -19 66 -19 188 l0 147 -83 0
c-46 0 -87 -3 -90 -7z"/>
<path d="M3180 925 l0 -135 175 0 175 0 0 135 0 135 -175 0 -175 0 0 -135z"/>
<path d="M4060 530 l0 -530 530 0 530 0 0 530 0 530 -90 0 -90 0 0 -157 c0
-147 -1 -159 -24 -197 -13 -23 -42 -51 -64 -64 -38 -21 -50 -22 -258 -22 -201
0 -221 2 -261 21 -29 14 -52 35 -68 63 -24 41 -25 51 -25 199 l0 157 -90 0
-90 0 0 -530z"/>
<path d="M4412 928 l3 -133 175 0 175 0 3 133 3 132 -181 0 -181 0 3 -132z"/>
</g>
</svg>
